<?xml version="1.0" encoding="utf-8"?>
<!-- Generator: Adobe Illustrator 23.0.3, SVG Export Plug-In . SVG Version: 6.00 Build 0)  -->
<svg version="1.1" id="Layer_1" xmlns="http://www.w3.org/2000/svg" xmlns:xlink="http://www.w3.org/1999/xlink" x="0px" y="0px"
	 viewBox="0 0 40 40" style="enable-background:new 0 0 40 40;" xml:space="preserve">
<style type="text/css">
	.st0{fill:none;stroke:#FFFFFF;stroke-width:3;}
	.st1{fill:#FFFFFF;}
</style>
<title>t-icons-chat-fill</title>
<g>
	<path class="st0" d="M34.2,8.9c-1.7-2.3-4.4-3.6-7.2-3.6H13c-2.8-0.1-5.5,1.3-7.2,3.6c-1.6,2.1-2.5,4.7-2.5,7.3
		c-0.1,2.7,0.8,5.3,2.5,7.3c0.8,1,1.8,1.9,3,2.5l0.5,9.8c0.1,0.4,0.5,0.6,0.9,0.5h0.4c0.5,0,0.6,0,1-0.5l5.8-8.7H27
		c2.8,0,5.5-1.3,7.2-3.5c1.7-2.1,2.6-4.7,2.5-7.3C36.7,13.6,35.8,11,34.2,8.9z"/>
	<path class="st1" d="M11.9,17.4v-2c0-0.6,0.6-0.9,1.8-0.9s1.7,0.3,1.7,0.9v2c0,0.6-0.6,0.9-1.8,0.9S11.9,18,11.9,17.4z"/>
	<path class="st1" d="M18.4,17.4v-2c0-0.6,0.6-0.9,1.8-0.9s1.7,0.3,1.7,0.9v2c0,0.6-0.6,0.9-1.8,0.9S18.4,18,18.4,17.4z"/>
	<path class="st1" d="M26.6,18.3c-1.2,0-1.8-0.3-1.8-0.9v-2c0-0.6,0.6-0.9,1.7-0.9s1.8,0.3,1.8,0.9v2C28.4,18,27.8,18.3,26.6,18.3z"
		/>
</g>
</svg>
