<?xml version="1.0" encoding="utf-8"?>
<!-- Generator: Adobe Illustrator 23.0.3, SVG Export Plug-In . SVG Version: 6.00 Build 0)  -->
<svg version="1.1" id="Layer_1" xmlns="http://www.w3.org/2000/svg" xmlns:xlink="http://www.w3.org/1999/xlink" x="0px" y="0px"
	 viewBox="0 0 40 40" style="enable-background:new 0 0 40 40;" xml:space="preserve">
<style type="text/css">
	.st0{fill:#FFFFFF;}
</style>
<title>t-icons-chat-outline</title>
<g>
	<path class="st0" d="M35.4,8c-2-2.6-5.1-4.2-8.4-4.1H13C9.7,3.8,6.6,5.4,4.6,8c-1.8,2.4-2.8,5.3-2.8,8.3c-0.1,3,1,5.9,2.9,8.2
		c0.8,0.9,1.7,1.7,2.7,2.4l0.4,9.2l0.1,0.2c0.4,1,1.3,1.6,2.3,1.5h0.4c0.9,0.1,1.8-0.4,2.2-1.2l5.3-8H27c3.3,0,6.4-1.5,8.4-4.1
		c1.9-2.3,2.9-5.2,2.8-8.2C38.2,13.3,37.2,10.4,35.4,8z M15.5,17.4c0,0.6-0.6,0.9-1.8,0.9s-1.7-0.3-1.7-0.9v-2
		c0-0.6,0.6-0.9,1.8-0.9s1.7,0.3,1.7,0.9V17.4z M21.9,17.4c0,0.6-0.6,0.9-1.8,0.9s-1.7-0.3-1.7-0.9v-2c0-0.6,0.6-0.9,1.8-0.9
		s1.7,0.3,1.7,0.9V17.4z M28.4,17.4c0,0.6-0.6,0.9-1.7,0.9s-1.8-0.3-1.8-0.9v-2c0-0.6,0.6-0.9,1.7-0.9s1.8,0.3,1.8,0.9V17.4z"/>
</g>
</svg>
