<?xml version="1.0" encoding="utf-8"?>
<!-- Generator: Adobe Illustrator 23.0.3, SVG Export Plug-In . SVG Version: 6.00 Build 0)  -->
<svg version="1.1" id="Layer_1" xmlns="http://www.w3.org/2000/svg" xmlns:xlink="http://www.w3.org/1999/xlink" x="0px" y="0px"
	 viewBox="0 0 40 40" style="enable-background:new 0 0 40 40;" xml:space="preserve">
<style type="text/css">
	.st0{fill:#FFFFFF;}
</style>
<title>t-icons-heart-fill-04</title>
<g>
	<path class="st0" d="M35.6,7.8c-2-2.9-5.3-4.6-8.8-4.7c-1.7-0.2-3.4,0.2-4.9,1c-0.7,0.5-1.3,1-1.9,1.7c-0.5-0.6-1.2-1.2-1.9-1.6
		c-1.5-0.8-3.2-1.2-4.9-1C9.7,3.3,6.4,5,4.4,7.9c-1.5,2-2.3,4.4-2.2,6.9V15c0,1,0,3.7,3.5,7.9l10.6,12.3l0,0
		c0.9,1.2,1.5,1.7,3.1,1.7h1.2c1.7,0,2.2-0.6,3.1-1.7l10.1-11.7l0.5-0.5c3.5-4.2,3.5-6.9,3.5-7.9v-0.2C37.9,12.3,37.1,9.8,35.6,7.8z
		"/>
</g>
</svg>
