<?xml version="1.0" encoding="utf-8"?>
<!-- Generator: Adobe Illustrator 23.0.3, SVG Export Plug-In . SVG Version: 6.00 Build 0)  -->
<svg version="1.1" id="Layer_1" xmlns="http://www.w3.org/2000/svg" xmlns:xlink="http://www.w3.org/1999/xlink" x="0px" y="0px"
	 viewBox="0 0 40 40" style="enable-background:new 0 0 40 40;" xml:space="preserve">
<style type="text/css">
	.st0{fill:#FFFFFF;}
</style>
<title>t-icons-info-fill</title>
<g>
	<path class="st0" d="M31.8,7.6C29,3.9,24.6,1.8,20,2c-4.6-0.1-8.9,2-11.8,5.6C4.4,12.1,4.5,19.3,4.6,20s-0.1,7.6,3.6,12.4
		C11,36.1,15.4,38.2,20,38c4.6,0.2,9-1.9,11.8-5.6c3.7-4.8,3.7-11.7,3.6-12.4S35.5,12.4,31.8,7.6z M21.5,27.7c0,0.5-0.4,0.7-1.3,0.7
		h-0.5c-0.9,0-1.3-0.2-1.3-0.7v-9.7c0-0.5,0.4-0.7,1.3-0.7h0.5c0.9,0,1.3,0.2,1.3,0.7L21.5,27.7z M21.7,14c0,0.5-0.7,0.7-1.7,0.7
		s-1.6-0.2-1.6-0.7v-1.9c0-0.5,0.7-0.7,1.7-0.7s1.6,0.2,1.6,0.7L21.7,14z"/>
</g>
</svg>
