<?xml version="1.0" encoding="utf-8"?>
<!-- Generator: Adobe Illustrator 23.0.3, SVG Export Plug-In . SVG Version: 6.00 Build 0)  -->
<svg version="1.1" id="Layer_1" xmlns="http://www.w3.org/2000/svg" xmlns:xlink="http://www.w3.org/1999/xlink" x="0px" y="0px"
	 viewBox="0 0 40 40" style="enable-background:new 0 0 40 40;" xml:space="preserve">
<style type="text/css">
	.st0{fill:none;stroke:#FFFFFF;stroke-width:3;}
	.st1{fill:#FFFFFF;}
</style>
<title>t-icons-info-outline</title>
<g>
	<path class="st0" d="M30.6,31.5c-2.5,3.3-6.5,5.2-10.6,5l0,0c-4.1,0.2-8.1-1.7-10.6-5C5.8,26.8,6.1,20,6.1,20S5.8,12.9,9.4,8.5
		c2.5-3.3,6.5-5.1,10.6-5l0,0c4.1-0.2,8.1,1.7,10.6,5c3.6,4.7,3.3,11.5,3.3,11.5S34.2,26.8,30.6,31.5z"/>
	<path class="st1" d="M18.3,14v-1.9c0-0.5,0.7-0.7,1.7-0.7s1.6,0.2,1.6,0.7V14c0,0.5-0.7,0.7-1.7,0.7S18.3,14.5,18.3,14z M18.4,27.7
		v-9.7c0-0.5,0.4-0.7,1.3-0.7h0.5c0.9,0,1.3,0.2,1.3,0.7v9.7c0,0.5-0.4,0.7-1.3,0.7h-0.5C18.8,28.4,18.4,28.1,18.4,27.7L18.4,27.7z"
		/>
</g>
</svg>
