<?xml version="1.0" encoding="utf-8"?>
<!-- Generator: Adobe Illustrator 23.0.3, SVG Export Plug-In . SVG Version: 6.00 Build 0)  -->
<svg version="1.1" id="Layer_1" xmlns="http://www.w3.org/2000/svg" xmlns:xlink="http://www.w3.org/1999/xlink" x="0px" y="0px"
	 viewBox="0 0 40 40" style="enable-background:new 0 0 40 40;" xml:space="preserve">
<style type="text/css">
	.st0{fill:#FFFFFF;}
	.st1{fill:none;stroke:#FFFFFF;stroke-width:3;}
</style>
<title>t-icons-methodology-outline</title>
<g>
	<path class="st0" d="M19.1,11.8h2c0.6,0,0.9,0.6,0.9,1.8s-0.3,1.7-0.9,1.7h-2c-0.6,0-0.9-0.6-0.9-1.8S18.6,11.8,19.1,11.8z"/>
	<path class="st0" d="M19.1,18.2h2c0.6,0,0.9,0.6,0.9,1.8s-0.3,1.7-0.9,1.7h-2c-0.6,0-0.9-0.6-0.9-1.8S18.6,18.2,19.1,18.2z"/>
	<path class="st0" d="M18.3,26.5c0-1.2,0.3-1.8,0.9-1.8h2c0.6,0,0.9,0.6,0.9,1.7c0,1.2-0.3,1.8-0.9,1.8h-2
		C18.6,28.2,18.3,27.6,18.3,26.5z"/>
	<path class="st1" d="M13.6,35.2c-0.3,0-0.5-0.1-0.7-0.2c-0.2-0.2-0.2-0.5-0.2-0.8V5.8c0-0.3,0-0.6,0.2-0.8c0.2-0.2,0.4-0.3,0.7-0.2
		h12.9c0.3,0,0.5,0.1,0.7,0.2c0.2,0.2,0.2,0.5,0.2,0.8v28.4c0,0.3-0.1,0.6-0.2,0.8c-0.2,0.2-0.4,0.3-0.7,0.2H13.6z"/>
</g>
</svg>
