<svg id="Layer_2" data-name="Layer 2" xmlns="http://www.w3.org/2000/svg" viewBox="0 0 40 40"><defs><style>.cls-1{fill:#fff;}</style></defs><title>trevor-icons-research</title><path class="cls-1" d="M16.39,10a5.1,5.1,0,0,0-4.16,2.23,7.33,7.33,0,0,0-1.54,4.4v.12a6.64,6.64,0,0,0,1.5,4.4A5.28,5.28,0,0,0,16.4,23.3h0a5.27,5.27,0,0,0,4.19-2.14,6.71,6.71,0,0,0,1.51-4.4v-.11a7.48,7.48,0,0,0-1.53-4.41A5.16,5.16,0,0,0,16.39,10Z"/><path class="cls-1" d="M37.08,32.63l-9-9.05a15.15,15.15,0,0,0,1.51-6.79A16,16,0,0,0,26.23,7a12,12,0,0,0-9.85-4.85A12,12,0,0,0,6.58,7a16,16,0,0,0-3.33,9.79,14.86,14.86,0,0,0,3.34,9.7,12.29,12.29,0,0,0,9.81,4.81h0a11.81,11.81,0,0,0,6.45-1.84l8.68,8.73a2,2,0,0,0,1.37.67,1.54,1.54,0,0,0,1-.42L37.33,35C37.44,34.93,38.37,33.92,37.08,32.63ZM24.55,16.78a9.09,9.09,0,0,1-2.07,5.94,7.72,7.72,0,0,1-6.07,3h0a7.68,7.68,0,0,1-6.1-3.05,9.11,9.11,0,0,1-2.06-6,9.77,9.77,0,0,1,2-6,7.45,7.45,0,0,1,12.23,0A9.81,9.81,0,0,1,24.55,16.78Z"/></svg>