<?xml version="1.0" encoding="utf-8"?>
<!-- Generator: Adobe Illustrator 23.0.3, SVG Export Plug-In . SVG Version: 6.00 Build 0)  -->
<svg version="1.1" id="Layer_1" xmlns="http://www.w3.org/2000/svg" xmlns:xlink="http://www.w3.org/1999/xlink" x="0px" y="0px"
	 viewBox="0 0 40 40" style="enable-background:new 0 0 40 40;" xml:space="preserve">
<style type="text/css">
	.st0{fill:#FFFFFF;}
</style>
<title>t-icons-suicide-fill</title>
<g>
	<path class="st0" d="M14.3,21c-0.3-0.6-0.5-1.2-0.8-1.9c-0.4-1-0.8-1.9-1.1-2.9c-0.4-1-0.9-1.1-2.1-1c-0.7,0-1.3,0.5-1.5,1.2
		c-0.5,1.6-1,3.1-1.4,4.7c-0.1,0.4-0.3,0.6-0.7,0.6c-1.2,0-2.4,0-3.7,0c-0.4,0-0.6-0.1-0.6-0.5c0-4.2,0-8.3,0-12.5
		c0.1-3.9,3-7.1,6.8-7.6C9.8,1,10.4,1,11,1c6.1,0,12.3,0,18.4,0c3.4-0.1,6.5,2,7.7,5.2c0.3,0.8,0.5,1.7,0.5,2.6c0,4.1,0,8.2,0,12.3
		v0.6c-0.2,0-0.4,0-0.6,0c-1.4,0-2.7,0-4.1,0c-0.5,0-0.6-0.2-0.7-0.6c-0.4-1.5-0.9-3-1.3-4.5c-0.3-1.1-1.4-1.7-2.5-1.4
		c-0.2,0.1-0.5,0.2-0.7,0.3c-0.3,0.3-0.5,0.6-0.6,1c-0.9,3.8-1.7,7.6-2.6,11.4c0,0.2-0.1,0.4-0.3,0.5c-0.3-1.5-0.7-3-1-4.5
		c-0.8-3.5-1.5-7.1-2.3-10.7c-0.2-1.1-0.5-2.1-0.7-3.2c-0.1-0.8-0.8-1.4-1.6-1.3h-0.5c-0.8-0.1-1.4,0.5-1.5,1.2
		c-0.5,2.5-1,5-1.5,7.5c-0.2,1.2-0.5,2.3-0.7,3.5L14.3,21z"/>
	<path class="st0" d="M29.1,18.2c0.3,0.9,0.5,1.7,0.8,2.5c0.2,0.6,0.4,1.3,0.6,1.9c0.2,0.7,0.8,1.2,1.6,1.2c1.7,0,3.3,0,4.9,0
		c0.5,0,0.6,0.1,0.6,0.6c0,2.3,0,4.7,0,7c-0.2,3.7-2.9,6.8-6.6,7.4c-0.5,0.1-1.1,0.1-1.6,0.1c-6.3,0-12.6,0-18.9,0
		c-3.9,0.1-7.2-2.6-8-6.4c-0.1-0.5-0.2-1-0.2-1.4c0-2.2,0-4.4,0-6.7c0-0.5,0.2-0.7,0.6-0.6c1.4,0,2.9,0,4.3,0
		C8.2,24,9,23.4,9.1,22.6c0,0,0-0.1,0-0.1c0.4-1.4,0.8-2.7,1.2-4.1c0.1-0.2,0.1-0.3,0.2-0.5c0.1,0.3,0.2,0.4,0.3,0.6l1.7,4.2
		c0.4,0.9,0.9,1.2,2.2,1.1c0.7,0,1.3-0.6,1.4-1.3c0.7-3.3,1.3-6.6,2-9.9c0-0.2,0.1-0.4,0.3-0.6c0.2,0.9,0.4,1.7,0.6,2.6
		c1.1,5.1,2.3,10.3,3.3,15.4c0.4,1.7,1.3,1.8,2.7,1.6c0.6-0.1,1.1-0.6,1.1-1.2c0.6-2.6,1.2-5.3,1.8-7.9c0.3-1.3,0.6-2.5,0.9-3.8
		c0-0.2,0.1-0.3,0.2-0.5L29.1,18.2z"/>
</g>
</svg>
