<?xml version="1.0" encoding="utf-8"?>
<!-- Generator: Adobe Illustrator 23.0.3, SVG Export Plug-In . SVG Version: 6.00 Build 0)  -->
<svg version="1.1" id="Layer_1" xmlns="http://www.w3.org/2000/svg" xmlns:xlink="http://www.w3.org/1999/xlink" x="0px" y="0px"
	 viewBox="0 0 40 40" style="enable-background:new 0 0 40 40;" xml:space="preserve">
<style type="text/css">
	.st0{fill:#FFFFFF;}
</style>
<title>trevor-danger-fill</title>
<g>
	<path class="st0" d="M35.1,30.2L25,6.2c-0.4-1-1.3-2.6-4.1-2.6h-1.9c-2.8,0-3.7,1.6-4.1,2.6l-10.1,24c-0.4,0.7-0.5,1.4-0.5,2.2
		c0,0.6,0.1,1.2,0.4,1.8c0.2,0.4,0.4,0.8,0.7,1.1c0.6,0.7,1.5,1.1,2.4,1.1h24.4c0.9,0,1.8-0.4,2.4-1.1c0.3-0.3,0.5-0.6,0.6-1
		c0.3-0.6,0.4-1.2,0.4-1.8C35.6,31.6,35.4,30.9,35.1,30.2z M21.2,28.9c0,0.4-0.3,0.6-1,0.6h-1.1c-0.7,0-1-0.2-1-0.6v-1.8
		c0-0.4,0.3-0.6,1-0.6h1.1c0.7,0,1,0.2,1,0.6L21.2,28.9z M20.9,23.8c0,0.2-0.1,0.3-0.2,0.4c-0.2,0.1-0.4,0.2-0.6,0.1h-0.8
		c-0.6,0-0.8-0.2-0.8-0.6V13.5c0-0.4,0.3-0.6,1-0.6h1.2c0.7,0,1,0.2,1,0.6L20.9,23.8z"/>
</g>
</svg>
