<?xml version="1.0" encoding="utf-8"?>
<!-- Generator: Adobe Illustrator 23.0.3, SVG Export Plug-In . SVG Version: 6.00 Build 0)  -->
<svg version="1.1" id="Layer_1" xmlns="http://www.w3.org/2000/svg" xmlns:xlink="http://www.w3.org/1999/xlink" x="0px" y="0px"
	 viewBox="0 0 40 40" style="enable-background:new 0 0 40 40;" xml:space="preserve">
<style type="text/css">
	.st0{fill:#FFFFFF;}
	.st1{fill:none;stroke:#FFFFFF;stroke-width:3;}
</style>
<title>trevor-danger-outline</title>
<g>
	<path class="st0" d="M18.1,28.9v-1.8c0-0.4,0.3-0.6,1-0.6h1.1c0.7,0,1,0.2,1,0.6v1.8c0,0.4-0.3,0.6-1,0.6h-1.1
		C18.5,29.5,18.1,29.3,18.1,28.9z M18.4,23.8V13.5c0-0.4,0.3-0.6,1-0.6h1.2c0.7,0,1,0.2,1,0.6l-0.8,10.3c0,0.2-0.1,0.3-0.2,0.4
		c-0.2,0.1-0.4,0.2-0.6,0.1h-0.8C18.7,24.4,18.4,24.2,18.4,23.8z"/>
	<path class="st1" d="M33.7,30.9L23.6,6.7c-0.4-1.1-1.5-1.8-2.7-1.6h-1.9c-1.2-0.2-2.3,0.5-2.7,1.6L6.3,30.9
		c-0.5,0.9-0.5,1.9-0.1,2.8c0.1,0.2,0.2,0.4,0.3,0.6c0.3,0.4,0.8,0.6,1.3,0.7h24.4c0.5,0,1-0.3,1.3-0.7c0.1-0.2,0.2-0.4,0.3-0.6
		C34.2,32.7,34.2,31.7,33.7,30.9z"/>
</g>
</svg>
