<?xml version="1.0" encoding="utf-8"?>
<!-- Generator: Adobe Illustrator 24.3.0, SVG Export Plug-In . SVG Version: 6.00 Build 0)  -->
<svg version="1.1" id="Layer_1" xmlns="http://www.w3.org/2000/svg" xmlns:xlink="http://www.w3.org/1999/xlink" x="0px" y="0px"
	 viewBox="0 0 20 20" style="enable-background:new 0 0 20 20;" xml:space="preserve">
<style type="text/css">
	.st0{fill:#FFFFFF;}
</style>
<g>
	<path class="st0" d="M11.4,19.3c-0.2,0-0.3,0-0.5-0.1c-0.2-0.1-0.4-0.3-0.4-0.6s0-0.5,0.1-0.7c0.1-0.2,0.3-0.3,0.4-0.4l-0.5-2
		c-1,0.1-2,0-2.9-0.4l-1.2,1.8c0.1,0.1,0.2,0.3,0.3,0.5c0.1,0.2,0,0.5-0.1,0.7c-0.1,0.2-0.3,0.4-0.6,0.4c-0.2,0.1-0.5,0-0.7-0.1
		l-1-0.6c-0.2-0.1-0.4-0.3-0.4-0.6c-0.1-0.2,0-0.5,0.1-0.7c0.3-0.4,0.7-0.5,1.2-0.4l1.2-1.8C5.6,13.7,5,12.9,4.6,12l-2.2,0.5
		c0,0.4-0.3,0.8-0.7,0.9c-0.5,0.1-1-0.2-1.1-0.7l-0.3-1.1c-0.1-0.5,0.2-1,0.7-1.1c0.5-0.1,0.9,0.1,1.1,0.5l2.2-0.5
		C4.2,9.7,4.4,8.7,4.8,7.9L2.9,6.8C2.6,7.1,2.1,7.2,1.7,7C1.5,6.8,1.3,6.6,1.3,6.4c-0.1-0.2,0-0.5,0.1-0.7L2,4.7
		c0.1-0.2,0.3-0.4,0.6-0.4c0.2-0.1,0.5,0,0.7,0.1C3.5,4.5,3.7,4.7,3.7,5c0,0.2,0,0.4,0,0.5l1.9,1.1C6.2,5.8,7.1,5.3,8,4.9l-0.5-2
		c-0.4,0-0.9-0.3-1-0.7C6.4,1.7,6.8,1.2,7.3,1l1.1-0.3c0.5-0.1,1,0.2,1.1,0.7C9.6,1.9,9.4,2.3,9,2.5l0.5,2c1-0.1,2,0,2.9,0.4
		l1.2-1.8c-0.1-0.1-0.2-0.3-0.3-0.5c-0.1-0.2,0-0.5,0.1-0.7c0.1-0.2,0.3-0.4,0.6-0.4c0.2-0.1,0.5,0,0.7,0.1l1,0.6
		c0.2,0.1,0.4,0.3,0.4,0.6c0.1,0.2,0,0.5-0.1,0.7c-0.3,0.4-0.7,0.5-1.2,0.4l-1.2,1.8C14.4,6.3,15,7.1,15.4,8l2.2-0.5
		c0-0.4,0.3-0.8,0.7-0.9c0.2-0.1,0.5,0,0.7,0.1c0.2,0.1,0.4,0.3,0.4,0.6l0.3,1.1c0.1,0.2,0,0.5-0.1,0.7c-0.1,0.2-0.3,0.4-0.6,0.4
		c-0.5,0.1-0.9-0.1-1.1-0.5l-2.2,0.5c0.1,0.9-0.1,1.9-0.5,2.7l1.9,1.1c0.3-0.3,0.8-0.4,1.2-0.2c0.2,0.1,0.4,0.3,0.4,0.6
		s0,0.5-0.1,0.7L18,15.3c-0.1,0.2-0.3,0.4-0.6,0.4c-0.2,0.1-0.5,0-0.7-0.1c-0.2-0.1-0.4-0.3-0.4-0.6c0-0.2,0-0.4,0-0.5l-1.9-1.1
		c-0.6,0.8-1.5,1.3-2.4,1.7l0.5,2c0.4,0,0.9,0.3,1,0.7c0.1,0.2,0,0.5-0.1,0.7c-0.1,0.2-0.3,0.4-0.6,0.4l-1.1,0.3
		C11.5,19.2,11.5,19.3,11.4,19.3z M17.2,14.8L17.2,14.8L17.2,14.8L17.2,14.8z M7.5,13.9L7.9,14c0.8,0.4,1.7,0.5,2.7,0.4l0.7-0.1
		l0.3-0.1c0.9-0.3,1.6-0.8,2.2-1.5l0.4-0.5l0,0l0.1-0.2l0.4,0.2l-0.4-0.2c0.4-0.8,0.6-1.7,0.5-2.5l-0.1-0.6l-0.1-0.3
		c-0.3-0.8-0.8-1.5-1.5-2l-0.6-0.4l-0.3-0.1c-0.8-0.4-1.7-0.5-2.7-0.4L8.8,5.7L8.5,5.8C7.6,6.1,6.9,6.6,6.3,7.3L5.9,7.9L5.8,8.1
		c-0.4,0.8-0.6,1.7-0.5,2.5l0.1,0.6l0.1,0.3c0.3,0.8,0.8,1.5,1.5,2L7.5,13.9z M8.5,1.3l0.1,0.4L8.5,1.3z"/>
</g>
</svg>
