<?xml version="1.0" encoding="utf-8"?>
<!-- Generator: Adobe Illustrator 24.3.0, SVG Export Plug-In . SVG Version: 6.00 Build 0)  -->
<svg version="1.1" id="Layer_1" xmlns="http://www.w3.org/2000/svg" xmlns:xlink="http://www.w3.org/1999/xlink" x="0px" y="0px"
	 viewBox="0 0 20 20" style="enable-background:new 0 0 20 20;" xml:space="preserve">
<style type="text/css">
	.st0{fill:#FFFFFF;}
</style>
<g>
	<path class="st0" d="M14.4,13.6 M14.7,12.1l-0.1,0.3 M14.6,12.3l2.7,1.6l0.2-0.3c0.1-0.2,0.4-0.3,0.6-0.2c0.2,0.1,0.3,0.4,0.1,0.6
		L17.6,15c-0.1,0.1-0.2,0.2-0.3,0.2c-0.1,0-0.2,0-0.3,0c-0.2-0.1-0.3-0.4-0.1-0.6l0.2-0.3l-2.7-1.6L14.1,13
		c-0.6,0.8-1.5,1.4-2.4,1.7l-0.3,0.1l0.7,2.9l0.3-0.1c0.2-0.1,0.5,0.1,0.5,0.3c0.1,0.2-0.1,0.5-0.3,0.5c0,0-1.1,0.3-1.1,0.3
		c-0.2,0.1-0.5-0.1-0.5-0.3c-0.1-0.2,0.1-0.5,0.3-0.5l0.3-0.1l-0.7-2.9l-0.3,0c-1,0.1-2,0-2.9-0.4l-0.3-0.1L5.7,17L6,17.2
		c0.2,0.1,0.3,0.4,0.1,0.6C6.1,17.9,6,17.9,5.8,18c-0.1,0-0.2,0-0.3,0l-1-0.6c-0.2-0.1-0.3-0.4-0.1-0.6c0.1-0.2,0.4-0.3,0.6-0.2
		l0.3,0.2L7,14.1L6.8,14c-0.8-0.6-1.4-1.4-1.7-2.3L5,11.5l-3.1,0.7l0.1,0.3C2,12.7,1.8,13,1.6,13c-0.2,0.1-0.5-0.1-0.5-0.3l-0.3-1.1
		c-0.1-0.2,0.1-0.5,0.3-0.5c0.2-0.1,0.5,0.1,0.5,0.3l0.1,0.3L4.8,11l0-0.3c-0.1-1,0.1-1.9,0.5-2.8l0.1-0.3L2.7,6.1L2.6,6.4
		C2.4,6.6,2.2,6.6,1.9,6.5C1.7,6.4,1.7,6.1,1.8,5.9L2.4,5c0.1-0.1,0.2-0.2,0.3-0.2s0.2,0,0.3,0C3.3,5,3.3,5.2,3.2,5.4L3,5.7l2.7,1.6
		L5.9,7c0.6-0.8,1.5-1.4,2.4-1.7l0.3-0.1L7.9,2.3L7.6,2.4C7.3,2.4,7.1,2.3,7,2.1C7,1.8,7.1,1.6,7.4,1.5l1.1-0.3
		C8.8,1.2,9,1.3,9.1,1.6C9.1,1.8,9,2,8.7,2.1L8.4,2.2l0.7,2.9l0.3,0c1-0.1,2,0,2.9,0.4l0.3,0.1L14.3,3L14,2.8
		c-0.2-0.1-0.3-0.4-0.1-0.6C13.9,2.1,14,2.1,14.2,2s0.2,0,0.3,0l1,0.6c0.2,0.1,0.3,0.4,0.1,0.6c-0.1,0.2-0.4,0.3-0.6,0.2l-0.3-0.2
		L13,5.9L13.2,6c0.8,0.6,1.4,1.4,1.7,2.3L15,8.5l3.1-0.7l-0.1-0.3C18,7.3,18.2,7,18.4,7c0.2-0.1,0.5,0.1,0.5,0.3l0.3,1.1
		c0.1,0.2-0.1,0.5-0.3,0.5c-0.2,0.1-0.5-0.1-0.5-0.3l-0.1-0.3L15.2,9l0,0.3c0.1,1-0.1,1.9-0.5,2.8"/>
	<path class="st0" d="M11.4,19.3c-0.2,0-0.3,0-0.5-0.1c-0.2-0.1-0.4-0.3-0.4-0.6s0-0.5,0.1-0.7c0.1-0.2,0.3-0.3,0.4-0.4l-0.5-2
		c-1,0.1-2,0-2.9-0.4l-1.2,1.8c0.1,0.1,0.2,0.3,0.3,0.5c0.1,0.2,0,0.5-0.1,0.7c-0.1,0.2-0.3,0.4-0.6,0.4c-0.2,0.1-0.5,0-0.7-0.1
		l-1-0.6c-0.2-0.1-0.4-0.3-0.4-0.6c-0.1-0.2,0-0.5,0.1-0.7c0.3-0.4,0.7-0.5,1.2-0.4l1.2-1.8C5.6,13.7,5,12.9,4.6,12l-2.2,0.5
		c0,0.4-0.3,0.8-0.7,0.9c-0.5,0.1-1-0.2-1.1-0.7l-0.3-1.1c-0.1-0.5,0.2-1,0.7-1.1c0.5-0.1,0.9,0.1,1.1,0.5l2.2-0.5
		C4.2,9.7,4.4,8.7,4.8,7.9L2.9,6.8C2.6,7.1,2.1,7.2,1.7,7C1.5,6.8,1.3,6.6,1.3,6.4c-0.1-0.2,0-0.5,0.1-0.7L2,4.7
		c0.1-0.2,0.3-0.4,0.6-0.4c0.2-0.1,0.5,0,0.7,0.1C3.5,4.5,3.7,4.7,3.7,5c0,0.2,0,0.4,0,0.5l1.9,1.1C6.2,5.8,7.1,5.3,8,4.9l-0.5-2
		c-0.4,0-0.9-0.3-1-0.7C6.4,1.7,6.8,1.2,7.3,1l1.1-0.3c0.5-0.1,1,0.2,1.1,0.7C9.6,1.9,9.4,2.3,9,2.5l0.5,2c1-0.1,2,0,2.9,0.4
		l1.2-1.8c-0.1-0.1-0.2-0.3-0.3-0.5c-0.1-0.2,0-0.5,0.1-0.7c0.1-0.2,0.3-0.4,0.6-0.4c0.2-0.1,0.5,0,0.7,0.1l1,0.6
		c0.2,0.1,0.4,0.3,0.4,0.6c0.1,0.2,0,0.5-0.1,0.7c-0.3,0.4-0.7,0.5-1.2,0.4l-1.2,1.8C14.4,6.3,15,7.1,15.4,8l2.2-0.5
		c0-0.4,0.3-0.8,0.7-0.9c0.2-0.1,0.5,0,0.7,0.1c0.2,0.1,0.4,0.3,0.4,0.6l0.3,1.1c0.1,0.2,0,0.5-0.1,0.7c-0.1,0.2-0.3,0.4-0.6,0.4
		c-0.5,0.1-0.9-0.1-1.1-0.5l-2.2,0.5c0.1,0.9-0.1,1.9-0.5,2.7l1.9,1.1c0.3-0.3,0.8-0.4,1.2-0.2c0.2,0.1,0.4,0.3,0.4,0.6
		s0,0.5-0.1,0.7L18,15.3c-0.1,0.2-0.3,0.4-0.6,0.4c-0.2,0.1-0.5,0-0.7-0.1c-0.2-0.1-0.4-0.3-0.4-0.6c0-0.2,0-0.4,0-0.5l-1.9-1.1
		c-0.6,0.8-1.5,1.3-2.4,1.7l0.5,2c0.4,0,0.9,0.3,1,0.7c0.1,0.2,0,0.5-0.1,0.7c-0.1,0.2-0.3,0.4-0.6,0.4l-1.1,0.3
		C11.5,19.2,11.5,19.3,11.4,19.3z M17.2,14.8L17.2,14.8L17.2,14.8L17.2,14.8z M7.5,13.9L7.9,14c0.8,0.4,1.7,0.5,2.7,0.4l0.7-0.1
		l0.3-0.1c0.9-0.3,1.6-0.8,2.2-1.5l0.4-0.5l0,0l0.1-0.2l0.4,0.2l-0.4-0.2c0.4-0.8,0.6-1.7,0.5-2.5l-0.1-0.6l-0.1-0.3
		c-0.3-0.8-0.8-1.5-1.5-2l-0.6-0.4l-0.3-0.1c-0.8-0.4-1.7-0.5-2.7-0.4L8.8,5.7L8.5,5.8C7.6,6.1,6.9,6.6,6.3,7.3L5.9,7.9L5.8,8.1
		c-0.4,0.8-0.6,1.7-0.5,2.5l0.1,0.6l0.1,0.3c0.3,0.8,0.8,1.5,1.5,2L7.5,13.9z M8.5,1.3l0.1,0.4L8.5,1.3z"/>
</g>
</svg>
