<?xml version="1.0" encoding="utf-8"?>
<!-- Generator: Adobe Illustrator 24.3.0, SVG Export Plug-In . SVG Version: 6.00 Build 0)  -->
<svg version="1.1" id="Layer_1" xmlns="http://www.w3.org/2000/svg" xmlns:xlink="http://www.w3.org/1999/xlink" x="0px" y="0px"
	 viewBox="0 0 20 20" style="enable-background:new 0 0 20 20;" xml:space="preserve">
<style type="text/css">
	.st0{fill:#010101;}
	.st1{fill:none;stroke:#FFFFFF;stroke-miterlimit:10;}
</style>
<g>
	<path class="st0" d="M2646.4,1201.5v-2c0-2.8-5-4-9.7-4s-9.7,1.3-9.7,4v2c0,1.8,0.7,3.6,2,4.9l5,4.9c0.3,0.3,0.4,0.6,0.4,1v6.4
		c0,0.4,0.2,0.7,0.6,0.8l2.9,0.9c0.5,0.1,1-0.2,1-0.8v-7.2c0-0.4,0.2-0.7,0.4-1l5.1-5C2645.7,1205.1,2646.4,1203.3,2646.4,1201.5z
		 M2636.7,1201.4c-4.8,0-7.4-1.3-7.5-1.8l0,0c0.1-0.5,2.7-1.8,7.5-1.8s7.3,1.3,7.5,1.8C2644,1200.1,2641.5,1201.4,2636.7,1201.4z"/>
	<path class="st0" d="M2641.7,1211.7c-0.6,0-1,0.4-1,1s0.4,1,1,1h4.3c0.6,0,1-0.4,1-1s-0.4-1-1-1H2641.7z"/>
	<path class="st0" d="M2646,1215.1h-4.3c-0.6,0-1,0.4-1,1s0.4,1,1,1h4.3c0.6,0,1-0.4,1-1C2647,1215.5,2646.6,1215.1,2646,1215.1z"/>
	<path class="st0" d="M2646,1218.4h-4.3c-0.6,0-1,0.4-1,1s0.4,1,1,1h4.3c0.6,0,1-0.4,1-1C2647,1218.9,2646.6,1218.4,2646,1218.4z"/>
</g>
<g>
	<path class="st0" d="M-2543.6-1165.9c-10.7-12.4-24.9-7-30.6-4.1c1.8-10,7.4-16.9,10.5-20.1c1.5-1.6,0.7-4.2-1.5-4.6
		c-0.1,0-0.2,0-0.4-0.1c-3.5-0.7-7.1,1.1-9.1,4.1c-4,6.1-4.7,14.8-4.7,20.5c-5.8-2.9-19.8-8-30.4,4.2c-13.6,15.8-3.5,49,5.5,59.5
		c8.6,10.2,27.6,2.8,27.6,2.8s19,7.3,27.6-2.8C-2540.1-1116.9-2529.9-1150.1-2543.6-1165.9z"/>
	<path class="st0" d="M-2586.3-1176.6c1.7,0.4,3.4-0.9,3.3-2.7c-0.1-3-0.8-7.5-3.6-10.9c-2.8-3.4-7-5.1-9.9-5.8
		c-1.7-0.4-3.4,0.9-3.3,2.7c0.1,3,0.8,7.5,3.6,10.9C-2593.5-1179-2589.2-1177.4-2586.3-1176.6z"/>
</g>
<g>
	<path class="st0" d="M2567.1,1257.4v-2c0-2.8-5-4-9.7-4s-9.7,1.3-9.7,4v2c0,1.8,0.7,3.6,2,4.9l5,4.9c0.3,0.3,0.4,0.6,0.4,1v6.4
		c0,0.4,0.2,0.7,0.6,0.8l2.9,0.9c0.5,0.1,1-0.2,1-0.8v-7.2c0-0.4,0.2-0.7,0.4-1l5.1-5C2566.4,1261,2567.1,1259.2,2567.1,1257.4z
		 M2557.4,1257.3c-4.8,0-7.4-1.3-7.5-1.8l0,0c0.1-0.5,2.7-1.8,7.5-1.8s7.3,1.3,7.5,1.8C2564.7,1256,2562.2,1257.3,2557.4,1257.3z"/>
	<path class="st0" d="M2562.4,1267.6c-0.6,0-1,0.4-1,1s0.4,1,1,1h4.3c0.6,0,1-0.4,1-1s-0.4-1-1-1H2562.4z"/>
	<path class="st0" d="M2566.7,1271h-4.3c-0.6,0-1,0.4-1,1s0.4,1,1,1h4.3c0.6,0,1-0.4,1-1C2567.7,1271.4,2567.3,1271,2566.7,1271z"/>
	<path class="st0" d="M2566.7,1274.3h-4.3c-0.6,0-1,0.4-1,1s0.4,1,1,1h4.3c0.6,0,1-0.4,1-1
		C2567.7,1274.8,2567.3,1274.3,2566.7,1274.3z"/>
</g>
<g>
	<path class="st0" d="M-2622.9-1110c-10.7-12.4-24.9-7-30.6-4.1c1.8-10,7.4-16.9,10.5-20.1c1.5-1.6,0.7-4.2-1.5-4.6
		c-0.1,0-0.2,0-0.4-0.1c-3.5-0.7-7.1,1.1-9.1,4.1c-4,6.1-4.7,14.8-4.7,20.5c-5.8-2.9-19.8-8-30.4,4.2c-13.6,15.8-3.5,49,5.5,59.5
		c8.6,10.2,27.6,2.8,27.6,2.8s19,7.3,27.6-2.8C-2619.4-1061-2609.2-1094.2-2622.9-1110z"/>
	<path class="st0" d="M-2665.6-1120.7c1.7,0.4,3.4-0.9,3.3-2.7c-0.1-3-0.8-7.5-3.6-10.9c-2.8-3.4-7-5.1-9.9-5.8
		c-1.7-0.4-3.4,0.9-3.3,2.7c0.1,3,0.8,7.5,3.6,10.9C-2672.8-1123.1-2668.5-1121.5-2665.6-1120.7z"/>
</g>
<g>
	<path class="st1" d="M16.7,6.5c-2.2-2.5-5-1.4-6.2-0.8c0.4-2,1.5-3.4,2.1-4c0.3-0.3,0.1-0.8-0.3-0.9c0,0,0,0-0.1,0
		c-0.7-0.1-1.4,0.2-1.8,0.8c-0.8,1.2-0.9,3-0.9,4.1C8.3,5.1,5.5,4,3.3,6.5c-2.7,3.2-0.7,9.9,1.1,12C6.2,20.5,10,19,10,19
		s3.8,1.5,5.6-0.6C17.4,16.4,19.4,9.7,16.7,6.5z"/>
	<path class="st1" d="M8.1,4.4c0.3,0.1,0.7-0.2,0.7-0.5c0-0.6-0.2-1.5-0.7-2.2s-1.4-1-2-1.2C5.7,0.4,5.3,0.6,5.3,1
		c0,0.6,0.2,1.5,0.7,2.2C6.6,3.9,7.5,4.2,8.1,4.4z"/>
</g>
</svg>
