<?xml version="1.0" encoding="utf-8"?>
<!-- Generator: Adobe Illustrator 24.1.0, SVG Export Plug-In . SVG Version: 6.00 Build 0)  -->
<svg version="1.1" id="Layer_1" xmlns="http://www.w3.org/2000/svg" xmlns:xlink="http://www.w3.org/1999/xlink" x="0px" y="0px"
	 viewBox="0 0 20 20" style="enable-background:new 0 0 20 20;" xml:space="preserve">
<style type="text/css">
	.st0{fill:#FFFFFF;}
</style>
<g transform="translate(0,-952.36218)">
	<path class="st0" d="M9.8,953.4c-0.1,0-0.2,0.1-0.2,0.1l-7.4,7.3c-0.1,0.1-0.2,0.3-0.1,0.5c0.1,0.2,0.2,0.3,0.4,0.3l1.7,0v8.2
		c0,0.5,0.4,0.8,0.8,0.8h3.2h0l0,0c0,0,0.5,0,0.6-0.3c0-0.1,0-0.1,0-0.2v-3.3c0-0.4,0.1-0.8,0.3-1.1c0.2-0.3,0.4-0.4,0.7-0.4
		c0.2,0,0.5,0.1,0.7,0.4c0.2,0.3,0.3,0.7,0.3,1.1v3.3c0,0.2,0.2,0.4,0.4,0.4c0,0,0,0,0,0h0h3.2c0.5,0,0.8-0.4,0.8-0.8v-8.2l1.7,0
		c0.2,0,0.3-0.1,0.4-0.3c0.1-0.2,0-0.3-0.1-0.5l-7.2-7.4C10.1,953.4,10,953.4,9.8,953.4C9.8,953.4,9.8,953.4,9.8,953.4L9.8,953.4z"
		/>
</g>
</svg>
