<?xml version="1.0" encoding="utf-8"?>
<!-- Generator: Adobe Illustrator 24.1.0, SVG Export Plug-In . SVG Version: 6.00 Build 0)  -->
<svg version="1.1" id="Layer_1" xmlns="http://www.w3.org/2000/svg" xmlns:xlink="http://www.w3.org/1999/xlink" x="0px" y="0px"
	 viewBox="0 0 20 20" style="enable-background:new 0 0 20 20;" xml:space="preserve">
<style type="text/css">
	.st0{fill:none;stroke:#FFFFFF;stroke-width:1.5;stroke-miterlimit:10;}
</style>
<g transform="translate(0,-952.36218)">
	<path class="st0" d="M10.5,953.3c-0.3-0.2-0.3-0.2-0.6,0l-7.9,7.8c-0.1,0.1-0.2,0.3-0.1,0.5c0.1,0.2,0.2,0.3,0.4,0.3l1.8,0v8.8
		c0,0.5,0.4,0.9,0.9,0.9h3.4h0l0,0c0,0,0.5,0,0.6-0.3c0-0.1,0-0.1,0-0.2v-3.6c0-0.5,0.2-0.9,0.4-1.2c0.2-0.3,0.5-0.4,0.7-0.4
		c0.3,0,0.5,0.1,0.7,0.4c0.2,0.3,0.4,0.7,0.4,1.2v3.6c0,0.3,0.2,0.5,0.5,0.5c0,0,0,0,0,0h0h3.4c0.5,0,0.9-0.4,0.9-0.9v-8.8l1.8,0
		c0.2,0,0.3-0.1,0.4-0.3c0.1-0.2,0-0.4-0.1-0.5L10.5,953.3c-0.1-0.1-0.5,0-0.6,0"/>
</g>
</svg>
