<svg id="Layer_1" data-name="Layer 1" xmlns="http://www.w3.org/2000/svg" viewBox="0 0 20 20"><defs><style>.cls-1{fill:none;stroke:#fff;stroke-linecap:round;stroke-linejoin:round;}.cls-2{fill:#fff;}</style></defs><path class="cls-1" d="M16.28,5.17c2.48-6.36,5.62,7.89.41,10.2"/><path class="cls-1" d="M4.09,5.33c-2.76-6.26-6.26,7.77-.46,10"/><path class="cls-2" d="M10.15,3.74c-4.2,0-7.6,3.1-7.6,6.92s3.4,6.92,7.6,6.92,7.6-3.1,7.6-6.92S14.35,3.74,10.15,3.74ZM7.48,6.18c.31-.17.6-.36.88-.55a3.3,3.3,0,0,1,2-.79,3.54,3.54,0,0,1,1.27.5A10.3,10.3,0,0,0,13,6a.54.54,0,0,1-.37,1,9.57,9.57,0,0,1-1.51-.7,2.76,2.76,0,0,0-.88-.37c-.31,0-.79.3-1.28.62a11.15,11.15,0,0,1-1,.59.48.48,0,0,1-.26.07.53.53,0,0,1-.47-.28A.54.54,0,0,1,7.48,6.18Zm5,7.72c-.64,0-1.58.08-2.53.08-1.84,0-3.76-.16-3.81-.85a.54.54,0,0,1,.5-.57A.51.51,0,0,1,7,12.7a30.14,30.14,0,0,0,6.44,0,.59.59,0,0,1,.34-.15.54.54,0,0,1,.57.51C14.43,13.78,13.48,13.84,12.49,13.9Zm2.9-2.51a17.43,17.43,0,0,1-4.68.35,32.06,32.06,0,0,1-5.47-.3A.66.66,0,0,1,4.9,11a.54.54,0,0,1,.5-.57.53.53,0,0,1,.34.1,56.84,56.84,0,0,0,9,0,.59.59,0,0,1,.27-.11.55.55,0,0,1,.59.48A.61.61,0,0,1,15.39,11.39Z"/></svg>