<?xml version="1.0" encoding="utf-8"?>
<!-- Generator: Adobe Illustrator 23.0.3, SVG Export Plug-In . SVG Version: 6.00 Build 0)  -->
<svg version="1.1" id="Layer_1" xmlns="http://www.w3.org/2000/svg" xmlns:xlink="http://www.w3.org/1999/xlink" x="0px" y="0px"
	 viewBox="0 0 40 40" style="enable-background:new 0 0 40 40;" xml:space="preserve">
<style type="text/css">
	.st0{fill:#FFFFFF;}
</style>
<title>t-icons-methodology-fill</title>
<g>
	<path class="st0" d="M28.2,4c-0.5-0.5-1.1-0.8-1.8-0.7H13.6c-0.7,0-1.3,0.2-1.8,0.7c-0.4,0.5-0.7,1.2-0.6,1.8v28.4
		c0,0.7,0.2,1.3,0.6,1.8c0.5,0.5,1.1,0.7,1.8,0.7h12.9c0.7,0,1.3-0.2,1.8-0.7c0.4-0.5,0.7-1.2,0.6-1.8V5.8C28.9,5.1,28.7,4.5,28.2,4
		z M21.1,28.2h-2c-0.6,0-0.9-0.6-0.9-1.7s0.3-1.8,0.9-1.8h2c0.6,0,0.9,0.6,0.9,1.7C22,27.6,21.7,28.2,21.1,28.2z M21.1,21.8h-2
		c-0.6,0-0.9-0.6-0.9-1.8s0.3-1.7,0.9-1.7h2c0.6,0,0.9,0.6,0.9,1.8S21.7,21.8,21.1,21.8z M21.1,15.3h-2c-0.6,0-0.9-0.6-0.9-1.8
		s0.3-1.7,0.9-1.7h2c0.6,0,0.9,0.6,0.9,1.8S21.7,15.3,21.1,15.3z"/>
</g>
</svg>
