<svg xmlns="http://www.w3.org/2000/svg" xmlns:xlink="http://www.w3.org/1999/xlink"><symbol viewBox="0 0 450 455" opacity=".5" id="svg-chapter-banner-left" xmlns="http://www.w3.org/2000/svg"><path d="M430.4 384.3c12.7 16.5 6.2 35.4-9.7 47.7-16 12.2-43.2 3.7-52-7.9-8.9-11.5-11.8-38 4.2-50.1 16-12.3 48.7-1.2 57.5 10.3z" fill="#00479C"/><path d="M67.9 42.6C14 74.4 34.4 151.8 48.7 185.6c14.2 33.6 61.8 45.7 93.3 32.3 31.6-13.3 75.4-62.4 66.2-114.4C199 51.5 129 6.5 68 42.6z" fill="#FF5A3D"/><path d="M240.3 277.1c24.3-5.7 56 6.6 62.1 32.7 6.1 26.1-8.6 52-32.8 57.6-24.3 5.7-49-10.8-55-37-6.2-26.1 1.5-47.6 25.7-53.3z" fill="#F9C058"/><path d="M102.2 360c-17.6 10.3-11 35.6-6.3 46.6s20.2 15 30.5 10.6 24.6-20.4 21.6-37.4-25.8-31.7-45.8-19.9z" fill="#005E67"/><path d="M146 263.3c2.6 3.5 1.2 7.5-2.1 10.1-3.4 2.6-9.2.8-11-1.7-2-2.4-2.6-8 .8-10.6 3.4-2.6 10.4-.3 12.2 2.2z" fill="#00479C"/></symbol><symbol viewBox="0 0 245 363" opacity=".5" id="svg-chapter-banner-right" xmlns="http://www.w3.org/2000/svg"><path d="M186.31 117.26c-17.4.48-27.03-9.38-27.37-21.61-.34-12.23 12.74-34.96 38.61-34.96 20.11 0 27.87 19.87 24.43 31.61-3.97 13.53-23.44 24.62-35.67 24.96z" fill="#005E67"/><path d="M155.18 227.92c-17.6 10.39-10.93 35.69-6.28 46.69 4.66 11 20.2 14.94 30.5 10.58 10.31-4.36 24.63-20.4 21.63-37.4s-25.88-31.64-45.85-19.87z" fill="#FF5A3D"/><path d="M239.94 201.3c2.67 3.48 1.3 7.5-2.08 10.1-3.39 2.6-9.17.8-11.05-1.66-1.88-2.45-2.49-8.06.9-10.65 3.39-2.6 10.34-.25 12.23 2.2z" fill="#F9C058"/><path d="M228.94 7.3c2.67 3.48 1.3 7.5-2.08 10.1-3.39 2.6-9.17.8-11.05-1.66-1.88-2.45-2.49-8.06.9-10.65 3.39-2.6 10.34-.25 12.23 2.2zM9.91 322.7c9.22 26.1 29.36 34.79 47.71 28.31 18.36-6.47 22.98-41.12 16.5-59.47-6.47-18.36-23.55-14.79-41.9-8.3-18.36 6.47-28.78 21.1-22.3 39.45z" fill="#00479C"/></symbol><symbol viewBox="0 0 74 74" id="svg-chev-circle-left" xmlns="http://www.w3.org/2000/svg"><circle r="37" cx="37" cy="37"/><path d="M40.48 47.73c.59-.6.59-1.56 0-2.15L32.3 37.4l8.18-8.17a1.52 1.52 0 00-2.15-2.15l-9.25 9.25c-.6.59-.6 1.55 0 2.15l9.25 9.25c.59.59 1.55.59 2.15 0z" fill="#fff"/></symbol><symbol viewBox="0 0 74 74" id="svg-chev-circle-right" xmlns="http://www.w3.org/2000/svg"><circle r="37" cx="37" cy="37"/><path d="M33.52 26.27c-.59.6-.59 1.56 0 2.15l8.18 8.18-8.18 8.17a1.52 1.52 0 002.15 2.15l9.25-9.25c.6-.59.6-1.55 0-2.15l-9.25-9.25c-.59-.59-1.55-.59-2.15 0z" fill="#fff"/></symbol><symbol viewBox="0 0 40 40" id="svg-copy-circle" xmlns="http://www.w3.org/2000/svg"><circle fill="var(--icon-bg-color)" cx="20" cy="20" r="20"/><g fill="var(--icon-color)"><path fill-rule="evenodd" d="M26 13.5h-8a1 1 0 00-1 1v8a1 1 0 001 1h8a1 1 0 001-1v-8a1 1 0 00-1-1zm-8-2a3 3 0 00-3 3v8a3 3 0 003 3h8a3 3 0 003-3v-8a3 3 0 00-3-3h-8z"/><path d="M14.25 17c-.69 0-1.25.56-1.25 1.25V26c0 1.1.9 2 2 2h7.75c.69 0 1.25-.56 1.25-1.25h2c0 1.8-1.46 3.25-3.25 3.25H15a4 4 0 01-4-4v-7.75c0-1.8 1.46-3.25 3.25-3.25v2z"/></g></symbol><symbol viewBox="0 0 25 25" id="svg-download-circle" xmlns="http://www.w3.org/2000/svg"><circle fill="var(--icon-bg-color)" cx="12.5" cy="12.5" r="12.5"/><g fill="var(--icon-color)"><path d="M19.09 15.14v2.78l-.02.16a.62.62 0 01-.61.48H6.62a.61.61 0 01-.61-.53L6 17.92v-2.78c0-.33.28-.6.62-.6.17 0 .32.07.43.18.12.1.19.25.19.42v2.23h10.61v-2.23c0-.33.28-.6.62-.6.17 0 .33.07.44.18.1.1.18.26.18.42z"/><path d="M16.1 12.35l-3.03 2.92-.02.02a.73.73 0 01-.4.2h-.21a.71.71 0 01-.4-.2l-.02-.02-3.04-2.92a.68.68 0 010-.98.75.75 0 011.03 0l1.82 1.75V6.7c0-.38.33-.69.72-.69.2 0 .38.08.51.2.13.13.21.3.21.5v6.42l1.83-1.75a.75.75 0 011.02 0c.27.27.27.71-.01.98z"/></g></symbol><symbol viewBox="0 0 15 10" id="svg-email" xmlns="http://www.w3.org/2000/svg"><path fill="var(--icon-color)" d="M13.5 0H1.05C.76 0 .5.1.3.3.1.47 0 .72 0 1v8c0 .27.1.52.3.7.2.2.46.3.74.3H13.5c.27 0 .54-.1.73-.3.2-.18.3-.43.3-.7V1a.98.98 0 00-.3-.7c-.2-.2-.46-.3-.73-.3zm-1.14 1L7.27 4.39 2.18 1h10.18zM1.04 9V1.46L6.98 5.4a.53.53 0 00.59 0l5.94-3.96V9H1.04z"/></symbol><symbol viewBox="0 0 21 20" id="svg-external" xmlns="http://www.w3.org/2000/svg"><g fill="var(--icon-color, currentColor)"><path d="M18.18 3.78l-7.66 7.66-1.41-1.41 7.66-7.66h-8.2v-2h11.61v11.6h-2z"/><path d="M0 2.43h5.92v2H2v13h14v-2.25h2v4.25H0z"/></g></symbol><symbol viewBox="0 0 27 52" id="svg-facebook" xmlns="http://www.w3.org/2000/svg"><path fill="var(--icon-color)" d="M27 .38v8.24h-4.9c-1.79 0-3 .38-3.63 1.13-.63.75-.94 1.88-.94 3.38v5.9h9.16l-1.22 9.25h-7.94V52H7.97V28.28H0v-9.25h7.97v-6.81c0-3.88 1.1-6.88 3.25-9C13.37 1.09 16.28 0 19.87 0c3.07 0 5.44.13 7.13.38z"/></symbol><symbol viewBox="0 0 20 20" id="svg-instagram" xmlns="http://www.w3.org/2000/svg"><g fill="none" stroke="currentColor" stroke-width="2" stroke-linejoin="round" stroke-linecap="round"><path d="M14.17 1.67H5.83a4.17 4.17 0 00-4.16 4.16v8.34c0 2.3 1.86 4.16 4.16 4.16h8.34c2.3 0 4.16-1.86 4.16-4.16V5.83c0-2.3-1.86-4.16-4.16-4.16z"/><path d="M13.33 9.47a3.33 3.33 0 11-6.6.98 3.33 3.33 0 016.6-.98zm1.25-4.05h.01"/></g></symbol><symbol viewBox="0 0 40 40" id="svg-link-circle" xmlns="http://www.w3.org/2000/svg"><circle fill="var(--icon-bg-color)" cx="20" cy="20" r="20"/><path fill="var(--icon-color)" d="M18.55 16.75h.29a4.75 4.75 0 013.46 1.9 1 1 0 01-1.52 1.3l-.08-.1a2.75 2.75 0 00-3.97-.46l-.18.16-2.24 2.24a2.75 2.75 0 003.74 4.03l.14-.13 1.28-1.28a1 1 0 011.5 1.32l-.08.1-1.3 1.29a4.75 4.75 0 01-6.87-6.55l.17-.18 2.25-2.25a4.75 4.75 0 013.4-1.4zm5.2-5.2a4.75 4.75 0 013.53 7.88l-.17.18-2.25 2.25a4.75 4.75 0 01-7.16-.51 1 1 0 011.52-1.3l.08.1a2.75 2.75 0 003.97.46l.18-.16 2.24-2.24a2.75 2.75 0 00-3.74-4.03l-.14.13-1.3 1.28a1 1 0 01-1.49-1.32l.09-.1 1.3-1.29c.9-.86 2.1-1.34 3.34-1.33z"/></symbol><symbol viewBox="0 0 32 25" id="svg-quote-close" xmlns="http://www.w3.org/2000/svg"><path fill="var(--icon-color)" d="M4.17 24.57c-.62.06-1.4.1-2.33.1-.86-.07-1.42-.7-1.67-1.87a2 2 0 01.19-1.2c.18-.38.43-.78.74-1.22a126.6 126.6 0 012.51-4c1-1.48 1.64-2.7 1.95-3.62 0-.25.03-.47.1-.65-1.06.18-2.14-.19-3.26-1.12-1.18-1.12-1.49-2.6-.93-4.46a8.13 8.13 0 013.26-4.47A6.96 6.96 0 017.89.95c.99-.07 2.04.15 3.16.65a6.98 6.98 0 012.6 2.88c.69 1.24.87 2.26.56 3.07a16.45 16.45 0 01-1.02 4c-.43 1.24-.84 2.45-1.21 3.63a13.12 13.12 0 01-2.32 4.37 86 86 0 01-3.26 4.09c.06.25-.12.4-.56.46-.43.06-.99.22-1.67.47zm16.55 0c-.62.06-1.4.1-2.32.1-.87-.07-1.4-.7-1.58-1.87a2 2 0 01.18-1.2c.19-.38.44-.78.75-1.22a126.6 126.6 0 012.5-4c1-1.48 1.65-2.7 1.96-3.62 0-.25.03-.47.1-.65-1.06.18-2.15-.19-3.26-1.12-1.18-1.12-1.52-2.6-1.03-4.46a8.13 8.13 0 013.26-4.47A6.96 6.96 0 0124.44.95c1-.07 2.05.15 3.16.65a6.98 6.98 0 012.6 2.88c.69 1.24.88 2.26.57 3.07a16.45 16.45 0 01-1.03 4c-.43 1.24-.83 2.45-1.2 3.63a13.12 13.12 0 01-2.33 4.37 86 86 0 01-3.26 4.09c.07.25-.12.4-.55.46-.44.06-1 .22-1.68.47z"/></symbol><symbol viewBox="0 0 32 24" id="svg-quote-open" xmlns="http://www.w3.org/2000/svg"><path fill="var(--icon-color)" d="M20.6 23.08a8.22 8.22 0 01-2.5-2.88c-.69-1.24-.9-2.27-.66-3.07.19-1.43.5-2.76.93-4 .5-1.24.93-2.45 1.3-3.63a12.73 12.73 0 012.24-4.37 66.6 66.6 0 013.35-4.1c-.07-.24.12-.4.55-.46.44-.06 1-.21 1.68-.46a14.5 14.5 0 012.32 0c.87 0 1.43.59 1.68 1.77.12.43.06.83-.19 1.2l-.74 1.21c-.75 1.18-1.61 2.51-2.6 4a18.32 18.32 0 00-1.87 3.63c0 .25-.03.46-.09.65 1.05-.19 2.14.19 3.25 1.12 1.18 1.11 1.5 2.6.93 4.46a8.13 8.13 0 01-3.25 4.46 6.96 6.96 0 01-3.16 1.12c-1 0-2.05-.22-3.16-.65zm-16.55 0a8.22 8.22 0 01-2.5-2.88c-.7-1.24-.9-2.27-.66-3.07.19-1.43.5-2.76.93-4 .5-1.24.93-2.45 1.3-3.63a12.73 12.73 0 012.23-4.37 66.6 66.6 0 013.35-4.1c-.06-.24.13-.4.56-.46.43-.06 1-.21 1.67-.46a14.5 14.5 0 012.33 0c.87 0 1.4.59 1.58 1.77.12.43.06.83-.19 1.2l-.74 1.21c-.74 1.18-1.61 2.51-2.6 4a18.32 18.32 0 00-1.86 3.63c0 .25-.03.46-.1.65 1.06-.19 2.14.19 3.26 1.12 1.18 1.11 1.49 2.6.93 4.46a7.7 7.7 0 01-3.16 4.46 6.96 6.96 0 01-3.17 1.12c-.99 0-2.04-.22-3.16-.65z"/></symbol><symbol viewBox="0 0 483 414" opacity=".5" id="svg-stats-card-bubbles" xmlns="http://www.w3.org/2000/svg"><path d="M205.4 368c50.5-17.7 67.3-56.7 54.8-92.2-12.6-35.5-79.6-44.4-115-31.9-35.6 12.5-28.7 45.6-16.1 81 12.5 35.6 40.8 55.7 76.3 43.2z" fill="#FF5A3D"/><path d="M332.9 390.2c10.8 18.4 37.2 11.4 48.7 6.6 11.5-4.9 15.6-21.1 11-31.9-4.5-10.7-21.3-25.7-39-22.5-17.7 3-33 27-20.7 47.8z" fill="#00479C"/><path d="M346.2 175c9.8-7.5 21.1-3.7 28.4 5.8 7.3 9.6 2.3 25.8-4.6 31.1-7 5.3-22.7 7-30-2.5-7.4-9.5-.8-29.1 6.2-34.4z" fill="#7155FF"/><path d="M344.7 229.7c3.7-2.8 7.9-1.3 10.6 2.2 2.7 3.5.8 9.6-1.8 11.5-2.5 2-8.4 2.6-11-1-2.8-3.4-.3-10.7 2.2-12.7z" fill="#F9C058"/><path d="M481.4 241.9c.5 18.1-9.8 28.2-22.5 28.5-12.8.4-36.5-13.3-36.5-40.3 0-21 20.7-29 33-25.5 14 4.2 25.7 24.5 26 37.3z" fill="#005E67"/><path d="M423.4 40.4c9.8-7.6 21.2-3.7 28.5 5.8 7.3 9.5 2.2 25.8-4.7 31.1-7 5.3-22.7 7-30-2.5-7.3-9.6-.7-29.1 6.2-34.4z" fill="#40009A"/><path d="M406.3 4.3c3.6-2.8 7.8-1.4 10.6 2.2 2.7 3.5.8 9.5-1.8 11.5-2.5 2-8.4 2.6-11.1-1-2.7-3.5-.3-10.7 2.3-12.7z" fill="#101066"/><path d="M8.6 383.3C4.6 366 13.3 343.4 32 339c18.7-4.3 37 6.1 41.1 23.4 4 17.3-7.7 35-26.4 39.3-18.6 4.4-34-1.1-38-18.4z" fill="#F9C058"/><path d="M72.3 362.3c3.7-2.8 7.9-1.4 10.6 2.1 2.7 3.6.8 9.6-1.8 11.6-2.5 2-8.4 2.6-11-1-2.8-3.5-.3-10.8 2.2-12.7z" fill="#005E67" style="mix-blend-mode:multiply"/></symbol><symbol viewBox="0 0 540 76" id="svg-trevor-logo" xmlns="http://www.w3.org/2000/svg"><path fill="var(--icon-color, currentColor)" d="M539.46 32.24l-15.29.58a.59.59 0 01-.61-.51c-.01-.1 0-.2.04-.3l4.08-10.88a.58.58 0 01.7-.37c.09.02.18.07.25.14l11.2 10.36a.58.58 0 01.13.61.58.58 0 01-.5.37zM512.3 9.67a.8.8 0 00.38-.68.79.79 0 00-.38-.67L499.62.1a.58.58 0 00-.86.26.56.56 0 00-.02.33l3.06 14.54a.8.8 0 00.48.6.81.81 0 00.77-.1l9.25-6.06zm18.4-6.68v-.38a.67.67 0 00-.05-.11.5.5 0 00-.2-.18H530l-.16.08-39.59 26.01a.54.54 0 00-.26.43v.24a.53.53 0 00.45.37l16.4 2a.56.56 0 01.47.37l5.79 15.36.06.12.08.06.05.06h.07l.08.04h.4l.08-.04.1-.08h.03a.56.56 0 00.09-.17l7.07-18.84L530.71 3zM123.83 50.22h-9.07V75.1h-9.24V50.22h-9.06V42h27.36v8.22zm15.22 14.76h-3.32V75.1h-9.23V42.02h14.46c7.2 0 12.41 4.79 12.41 11.7a10.52 10.52 0 01-5.3 9.33l6.64 12.06h-10.27l-5.4-10.13zm-3.32-7.68h4.2c2.57 0 4.05-1.53 4.05-3.6 0-2.07-1.48-3.58-4.05-3.58h-4.2v7.18zm43.57 9.9v7.9h-21.76V42.02h21.34v7.9H166.7v4.88h10.96v7.44H166.7v4.93l12.6.03zm35.93-25.18L202.45 75.1h-8.56l-13.05-33.08h10.5l6.82 20.56 6.64-20.56h10.43zm16.19 33.91c-10.73 0-18.38-7.26-18.38-17.37 0-10.11 7.65-17.38 18.38-17.38 10.73 0 18.34 7.23 18.34 17.38 0 10.15-7.64 17.37-18.34 17.37zm0-8.47c5.08 0 8.76-3.72 8.76-8.9 0-5.17-3.67-8.9-8.76-8.9a8.68 8.68 0 00-8.25 5.47 8.45 8.45 0 00-.56 3.43 8.48 8.48 0 002.46 6.34 8.63 8.63 0 006.35 2.56zm34.15-2.48h-3.32V75.1h-9.21V42.02h14.46c7.2 0 12.41 4.79 12.41 11.7a10.53 10.53 0 01-5.3 9.33l6.64 12.06h-10.27l-5.41-10.13zm-3.32-7.68h4.2c2.57 0 4.05-1.53 4.05-3.6 0-2.07-1.48-3.58-4.05-3.58h-4.2v7.18zM27.3 50.26h-9.05V75.1H9.04V50.26H0v-8.19h27.3v8.2zm31.48-8.19V75.1h-9.17V62.5h-10v12.67h-9.25v-33.1h9.25V54h10V42.07h9.17zM85.47 67.2v7.89H63.75V42.07h21.32v7.87H72.95v4.85h10.93v7.47H72.9v4.95h12.57zm352.93.02v7.92h-21.8V42H438v7.9h-12.22v4.87h10.98v7.5h-10.98v4.95h12.62zm63.1-16.99h-9.07v24.9h-9.25v-24.9h-9.08V42h27.4v8.23zm-179.82 3.75c0 6.94-5.28 12.04-12.38 12.04h-5v9.14h-9.23V42h14.23c7.1 0 12.38 5.02 12.38 11.98zm-9.46 0a3.76 3.76 0 00-2.45-3.77c-.5-.2-1.04-.28-1.58-.25h-3.9V58h3.9c1.02.05 2.01-.3 2.77-.98a3.8 3.8 0 001.26-3.02v-.02zM336.5 65h-3.33v10.14h-9.2V42h14.48c7.21 0 12.44 4.8 12.44 11.73a10.57 10.57 0 01-5.31 9.36l6.63 12.04h-10.27L336.5 65zm-3.33-7.69h4.2c2.59 0 4.06-1.54 4.06-3.61s-1.47-3.58-4.05-3.58h-4.2v7.2zM371.71 76c-10.74 0-18.41-7.28-18.41-17.41 0-10.13 7.67-17.41 18.41-17.41s18.36 7.24 18.36 17.4c0 10.15-7.64 17.42-18.36 17.42zm0-8.5c5.1 0 8.78-3.7 8.78-8.91 0-5.22-3.69-8.9-8.78-8.9a9.03 9.03 0 00-6.18 2.7 8.88 8.88 0 000 12.41 9.03 9.03 0 006.18 2.7zM402.83 42v21.3c0 2.57-1.51 4.17-3.7 4.17a4.83 4.83 0 01-3.73-1.61l-6.82 5.42c2.3 2.93 6.05 4.69 10.6 4.69 7.75 0 12.96-5.02 12.96-12.2V42h-9.31zm56.14 25.43a8.99 8.99 0 01-6.17-2.68 8.83 8.83 0 010-12.38 8.99 8.99 0 016.17-2.67 7.7 7.7 0 015.8 2.56l7.87-4.63a16.79 16.79 0 00-13.69-6.48c-10.17 0-17.75 7.47-17.75 17.44 0 9.96 7.55 17.4 17.75 17.4a16.86 16.86 0 0013.73-6.58l-7.9-4.63a7.46 7.46 0 01-5.8 2.65z"/></symbol><symbol viewBox="0 0 235 191" id="svg-twitter" xmlns="http://www.w3.org/2000/svg"><path fill="var(--icon-color)" d="M74 191c88.6 0 137-73.5 137-137.2v-6.2a98 98 0 0024-25c-8.6 3.8-18 6.4-27.7 7.6 10-6 17.6-15.4 21.2-26.7A96.6 96.6 0 01198 15.2a48.2 48.2 0 00-82.2 44c-40-2-75.6-21.2-99.3-50.4a48 48 0 0014.9 64.4c-8-.2-15.4-2.4-21.9-6v.6A48.2 48.2 0 0048.1 115a48.3 48.3 0 01-21.8.9c6.2 19.1 24 33 45 33.5a96.7 96.7 0 01-71.3 20A136.5 136.5 0 0074 191"/></symbol></svg>