<?xml version="1.0" encoding="utf-8"?>
<!-- Generator: Adobe Illustrator 23.0.3, SVG Export Plug-In . SVG Version: 6.00 Build 0)  -->
<svg version="1.1" id="Layer_1" xmlns="http://www.w3.org/2000/svg" xmlns:xlink="http://www.w3.org/1999/xlink" x="0px" y="0px"
	 viewBox="0 0 40 40" style="enable-background:new 0 0 40 40;" xml:space="preserve">
<style type="text/css">
	.st0{fill:none;stroke:#FFFFFF;stroke-width:3;}
</style>
<title>t-icons-change1-outline</title>
<g>
	<path class="st0" d="M18.4,23.3c0,0-3.1-5.7-3.5-6.2c-0.4-0.8-1.3-1.4-2.2-1.4h-1.6V9.2c0-0.5-0.2-0.7-0.8-0.7l0,0
		c-0.6,0-0.7,0-1.1,0.7L2,18.7c-0.3,0.3-0.4,0.7-0.4,1.1c0,0.5,0.1,1,0.4,1.3l7,9.5c0.4,0.6,0.6,0.7,1.1,0.7l0,0
		c0.6,0,0.8-0.1,0.8-0.7v-6h6.8c0.7,0,1-0.2,1-0.5C18.7,23.9,18.5,23.6,18.4,23.3z"/>
	<path class="st0" d="M29.5,24.7h-1.3c-0.9-0.1-1.7-0.6-2.1-1.4c-0.4-0.5-3.5-6.2-3.5-6.2c-0.2-0.3-0.4-0.6-0.5-0.9
		c0-0.3,0.3-0.5,1-0.5l6.5,0.1V9.2c0-0.5,0.2-0.7,0.8-0.7l0,0c0.6,0,0.7,0.1,1.1,0.7l6.4,9.5c0.3,0.3,0.4,0.7,0.4,1.1
		c0,0.5-0.1,1-0.4,1.3l-6.4,9.5c-0.4,0.6-0.5,0.7-1.1,0.7l0,0c-0.6,0-0.8-0.1-0.8-0.7L29.5,24.7z"/>
</g>
</svg>
