<?xml version="1.0" encoding="utf-8"?>
<!-- Generator: Adobe Illustrator 23.0.3, SVG Export Plug-In . SVG Version: 6.00 Build 0)  -->
<svg version="1.1" id="Layer_1" xmlns="http://www.w3.org/2000/svg" xmlns:xlink="http://www.w3.org/1999/xlink" x="0px" y="0px"
	 viewBox="0 0 40 40" style="enable-background:new 0 0 40 40;" xml:space="preserve">
<style type="text/css">
	.st0{fill:none;stroke:#FFFFFF;stroke-width:3;}
</style>
<title>t-icons-heart-outline</title>
<g>
	<path class="st0" d="M20.6,35.4c1,0,1.2-0.2,2-1.2l0,0L33.1,22l0,0c3.1-3.7,3.1-5.9,3.1-6.9c0.2-2.3-0.5-4.5-1.9-6.3
		c-1.8-2.5-4.6-4-7.6-4.1c-1.4-0.1-2.8,0.2-4,0.8c-1,0.7-1.9,1.6-2.6,2.7h-0.2c-0.7-1.1-1.5-2-2.6-2.7c-1.2-0.7-2.6-1-4.1-0.8
		c-3,0.1-5.9,1.6-7.6,4c-1.4,1.8-2.1,4-1.9,6.3c0,1,0,3.2,3.1,6.9l0,0l10.5,12.3l0,0c0.8,1,1,1.2,2,1.2H20.6z"/>
</g>
</svg>
