<?xml version="1.0" encoding="utf-8"?>
<!-- Generator: Adobe Illustrator 23.0.3, SVG Export Plug-In . SVG Version: 6.00 Build 0)  -->
<svg version="1.1" id="Layer_1" xmlns="http://www.w3.org/2000/svg" xmlns:xlink="http://www.w3.org/1999/xlink" x="0px" y="0px"
	 viewBox="0 0 40 40" style="enable-background:new 0 0 40 40;" xml:space="preserve">
<style type="text/css">
	.st0{fill:#FFFFFF;}
</style>
<title>t-icons-suicide-outline</title>
<g>
	<path class="st0" d="M37.6,20v11.1c0,3.9-2.9,7.2-6.8,7.7C30.3,39,29.9,39,29.5,39H10.6c-3.9,0.1-7.3-2.6-8-6.4
		c-0.1-0.5-0.2-1-0.2-1.6c0-7.3,0-14.7,0-22c0-3.9,2.9-7.3,6.7-7.9C9.8,1,10.4,1,11,1c6.2,0,12.3,0,18.5,0c3.8-0.1,7.1,2.5,7.9,6.2
		c0.1,0.5,0.2,1,0.2,1.5C37.6,12.5,37.6,16.3,37.6,20z M24.4,28.2c0.3-1.3,0.6-2.6,0.9-3.8c0.6-2.6,1.2-5.3,1.8-7.9
		c0.1-0.8,0.9-1.4,1.8-1.3c0,0,0,0,0,0h0.3c0.8-0.2,1.7,0.4,1.8,1.2c0,0,0,0,0,0c0.5,1.5,0.9,3.1,1.4,4.6c0,0.3,0.3,0.5,0.6,0.5
		c0,0,0,0,0,0c0.5,0,1,0,1.5,0s0.6-0.2,0.6-0.6c0-4,0-8.1,0-12.1c0-1.3-0.5-2.6-1.5-3.6c-1.1-1.2-2.7-1.8-4.4-1.8
		c-6.2,0-12.3,0-18.5,0c-0.2,0-0.5,0-0.8,0C7.2,3.7,5,6,4.9,8.8c0,4.1,0,8.1,0,12.2c0,0.4,0.1,0.5,0.5,0.5c0.4,0,0.8,0,1.1,0
		c0.5,0,0.7-0.2,0.8-0.6c0.4-1.5,0.9-2.9,1.3-4.4c0.1-0.8,0.9-1.4,1.7-1.4c1.2,0,1.9,0,2.4,1.4c0.4,1.2,0.9,2.4,1.4,3.6
		c0.1,0.1,0.1,0.3,0.2,0.5c0.1-0.3,0.1-0.5,0.2-0.7c0.6-3.3,1.3-6.6,2-9.9c0.1-0.7,0.7-1.3,1.4-1.4c0.2,0,0.4,0,0.6,0
		c1.2,0,1.7,0.4,2,1.5l1.5,7.1C22.8,20.8,23.5,24.4,24.4,28.2z M29.1,18.6c0,0.1-0.1,0.2-0.1,0.3c-0.9,3.8-1.7,7.6-2.6,11.4
		c-0.2,1-0.6,1.5-1.7,1.5c-1.2,0.1-2.1-0.1-2.4-1.6c-0.6-2.8-1.2-5.6-1.8-8.3l-2.1-9.4c-0.4,1.9-0.7,3.7-1.1,5.5l-1,4.8
		c-0.1,0.6-0.6,1.1-1.2,1.2c-0.4,0.1-0.9,0.1-1.3,0c-0.6,0-1.2-0.5-1.4-1.1c-0.5-1.4-1.1-2.8-1.6-4.2c0-0.1-0.1-0.2-0.2-0.4
		c-0.5,1.6-0.9,3-1.3,4.5C9.1,23.4,8.6,24,7.8,24c-0.8,0-1.6,0.1-2.4,0c-0.4,0-0.6,0.1-0.6,0.6c0,2.1,0,4.1,0,6.2
		c-0.1,3.1,2.3,5.6,5.4,5.7c0.1,0,0.2,0,0.3,0h18.9c0.4,0,0.9,0,1.3-0.1c2.4-0.5,4.2-2.5,4.4-4.9c0-2.3,0-4.7,0-7
		c0-0.4-0.1-0.5-0.5-0.5c-0.8,0-1.6,0-2.4,0c-0.9,0.2-1.8-0.5-2-1.4c0,0,0-0.1,0-0.1C29.9,21.2,29.5,20,29.1,18.6z"/>
</g>
</svg>
