<?xml version="1.0" encoding="utf-8"?>
<!-- Generator: Adobe Illustrator 24.1.0, SVG Export Plug-In . SVG Version: 6.00 Build 0)  -->
<svg version="1.1" id="Layer_1" xmlns="http://www.w3.org/2000/svg" xmlns:xlink="http://www.w3.org/1999/xlink" x="0px" y="0px"
	 viewBox="0 0 20 20" style="enable-background:new 0 0 20 20;" xml:space="preserve">
<style type="text/css">
	.st0{fill:none;stroke:#FFFFFF;}
</style>
<path class="st0" d="M19.1,15.7l-0.3-0.5c-0.1-0.2-0.3-0.2-0.4-0.1L18,15.4c-0.1,0.1-0.3,0.1-0.4-0.1L17,14.4
	c-0.1-0.2-0.1-0.4,0-0.6c0.5-0.7,0.9-1.5,1.1-2.5c0.4-2.7-1.1-5.2-3.5-5.6c-1-0.1-1.8,0.1-2.8,1c-0.1,0.1-0.1,0.2,0,0.6L12,7.8
	c0.1,0.3,0.5,0.1,0.8-0.1c0.7-0.5,1-0.6,1.5-0.6c1.7,0,2.8,2.1,2.5,4c-0.3,1.9-1.9,3.2-3.5,3s-2.7-2-2.4-3.9
	c0.4-2.7-1.1-5.2-3.5-5.6c-0.8-0.1-1.6,0-2.3,0.3C4.8,5,4.5,4.9,4.4,4.7L3.1,3.1l0.7,0.1c0.3,0,0.6-0.1,0.6-0.4l0.1-0.5
	c0-0.3-0.2-0.6-0.5-0.6L1.9,1.2c-0.3,0-0.6,0.1-0.6,0.4L0.8,4.3C0.8,4.6,1,4.9,1.3,5l0,0c0.3,0,0.6-0.1,0.6-0.4l0.1-0.9l1.3,2.1
	c0.1,0.2,0.1,0.4,0,0.6C2.8,7,2.4,7.8,2.3,8.8c-0.4,2.7,0.8,4.8,3.2,5.1c0.9,0.1,1.7,0,2.6-0.6c0.3-0.2,0.2-0.2,0.2-0.5l-0.1-0.6
	c-0.2-0.2-0.5-0.1-0.8,0C7,12.4,6.6,12.5,6,12.6C4.4,12.7,3.2,10.9,3.5,9c0.3-1.9,1.9-3.2,3.5-3c1.6,0.3,2.7,2,2.4,3.9
	c-0.4,2.7,1.1,5.2,3.5,5.6c0.8,0.1,1.5,0,2.2-0.3c0.3-0.1,0.6,0,0.7,0.2l0.4,0.7c0.1,0.2,0.1,0.5-0.1,0.7L16.2,17
	c-0.2,0.2-0.3,0.5-0.1,0.7l0.3,0.5c0.1,0.2,0.3,0.2,0.4,0.1l0.3-0.3c0.1-0.1,0.3-0.1,0.4,0.1l0.2,0.4c0.1,0.2,0.3,0.2,0.4,0.1
	l0.5-0.4c0.2-0.2,0.2-0.4,0.1-0.7l-0.1-0.2c-0.1-0.2-0.1-0.5,0.1-0.7l0.2-0.1C19.2,16.2,19.3,15.9,19.1,15.7z"/>
</svg>
