<?xml version="1.0" encoding="utf-8"?>
<!-- Generator: Adobe Illustrator 24.1.0, SVG Export Plug-In . SVG Version: 6.00 Build 0)  -->
<svg version="1.1" id="Layer_1" xmlns="http://www.w3.org/2000/svg" xmlns:xlink="http://www.w3.org/1999/xlink" x="0px" y="0px"
	 viewBox="0 0 80 100" style="enable-background:new 0 0 80 100;" xml:space="preserve">
<style type="text/css">
	.st0{fill:#FFFFFF;stroke:#FFFFFF;stroke-miterlimit:10;}
	.st1{fill:#FFFFFF;}
</style>
<path class="st0" d="M76.7,8.6H65.6c-1.2,0-2.2,1-2.2,2.2c0,1.2,1,2.2,2.2,2.2h5.8L54.6,29.8c-8.1-7.7-20.8-7.7-29-0.1l-5.8-5.8
	l3.5-3.5c0.8-0.9,0.8-2.3-0.1-3.1c-0.8-0.8-2.1-0.8-3,0l-3.5,3.5l-7.9-7.9h5.5c1.2,0,2.2-1,2.2-2.2c0-1.2-1-2.2-2.2-2.2h-11
	c-1.2,0-2.2,1-2.2,2.2v11.2c0,1.2,1,2.2,2.2,2.2s2.2-1,2.2-2.2v-6.1l8.1,8.1L10,27.4c-0.9,0.8-0.9,2.2-0.1,3.1s2.2,0.9,3.1,0.1
	c0,0,0.1-0.1,0.1-0.1l3.5-3.5l5.8,5.8c0.1,0,0.1,0.1,0.2,0.1c-6.9,9.5-4.8,22.9,4.7,29.8c3.1,2.2,6.6,3.6,10.4,4v11.8h-5
	c-1.2,0-2.2,1-2.2,2.2c0,1.2,1,2.2,2.2,2.2h5v6.4c0,1.2,1,2.2,2.2,2.2s2.2-1,2.2-2.2V83h5c1.2,0,2.2-1,2.2-2.2s-1-2.2-2.2-2.2h-5
	V66.7c11.7-1.2,20.3-11.6,19.2-23.4c-0.4-3.7-1.7-7.2-3.8-10.2l1.8-1.8c0.1-0.1,0.2-0.1,0.2-0.2l14.9-15v5.6c0,1.2,1,2.2,2.2,2.2
	c1.2,0,2.2-1,2.2-2.2v-11C78.9,9.5,77.9,8.6,76.7,8.6L76.7,8.6z M40,62.5c-9.4,0-17-7.6-17-17c0-9.4,7.6-17,17-17
	c9.4,0,17,7.6,17,17c0,0,0,0,0,0C57,54.8,49.4,62.4,40,62.5z"/>
<circle class="st1" cx="39.9" cy="45.5" r="18"/>
</svg>
