<?xml version="1.0" standalone="no"?>
<!DOCTYPE svg PUBLIC "-//W3C//DTD SVG 20010904//EN"
 "http://www.w3.org/TR/2001/REC-SVG-20010904/DTD/svg10.dtd">
<svg version="1.0" xmlns="http://www.w3.org/2000/svg"
 width="270.000000pt" height="270.000000pt" viewBox="0 0 270.000000 270.000000"
 preserveAspectRatio="xMidYMid meet">
<metadata>
Created by potrace 1.14, written by Peter Selinger 2001-2017
</metadata>
<g transform="translate(0.000000,270.000000) scale(0.100000,-0.100000)"
fill="#000000" stroke="none">
<path d="M5 2688 c-3 -7 -4 -614 -3 -1348 l3 -1335 1345 0 1345 0 0 1345 0
1345 -1343 3 c-1069 2 -1344 0 -1347 -10z m1110 -796 c94 -65 170 -124 170
-132 0 -18 -252 -193 -269 -187 -14 5 -100 413 -90 428 3 5 8 9 12 9 4 -1 84
-54 177 -118z m645 39 c0 -10 -7 -38 -16 -62 -9 -24 -40 -111 -69 -194 -29
-82 -74 -208 -100 -280 -26 -71 -62 -173 -80 -225 -89 -257 -166 -465 -175
-474 -5 -5 -12 -7 -15 -5 -2 3 -39 102 -80 220 -42 117 -79 217 -83 220 -4 4
-104 19 -222 34 -118 15 -219 31 -225 37 -13 12 -64 -25 575 417 52 36 181
125 285 198 105 73 193 133 198 133 4 0 7 -8 7 -19z m104 -651 c96 -94 147
-153 141 -158 -6 -5 -104 -13 -219 -16 l-209 -7 7 32 c6 31 64 199 92 267 7
17 19 32 25 32 7 0 80 -67 163 -150z"/>
</g>
</svg>
