<svg xmlns="http://www.w3.org/2000/svg" viewBox="0 0 257 274" preserveAspectRatio="xMidYMid meet" opacity=".5">
  <path d="M203 273.2c30 5.4 47.2-29.6 52.7-46.6 5.5-16.9-8.2-36.5-24-41.6-16-5.2-47.7-1-61 21-13.1 22.1-1.6 61 32.4 67.2Z" fill="#F9C058"/>
  <path d="M86 157.4c.7-11.9 10.6-17.7 22-17 11.6.7 20.2 14.6 19.7 23-.5 8.2-9.2 20.7-20.7 20-11.5-.6-21.5-17.7-21-26Z" fill="#7155FF"/>
  <path d="M219.2 101.3c13.5 11 14.3 24.8 6.6 34.3-7.8 9.4-32.5 18-52 1.1-15.3-13.1-8.2-33.2 2.1-39.8 11.9-7.7 33.9-3.3 43.3 4.4Z" fill="#005E67"/>
  <path d="M36.9 17c.7-11.8 10.5-17.6 22-17C70.4.8 79 14.7 78.5 23 78 31.2 69.4 43.7 58 43c-11.5-.7-21.5-17.7-21-26Z" fill="#FF5A3D"/>
  <path d="M0 6.8C.3 2.4 4 .3 8.2.5 12.5.8 15.6 6 15.5 9c-.2 3-3.4 7.7-7.7 7.5-4.3-.3-8-6.6-7.8-9.7Z" fill="#101066"/>
  <path d="M124.3 69.4c.3-4.4 4-6.5 8.2-6.3 4.3.3 7.5 5.4 7.3 8.5-.2 3.1-3.4 7.7-7.7 7.5-4.2-.3-8-6.6-7.8-9.7Z" fill="#40009A"/>
</svg>
