<svg xmlns="http://www.w3.org/2000/svg" viewBox="0 0 257 274" preserveAspectRatio="xMidYMid meet" opacity=".5">
  <path d="M53.9.6C23.9-5 6.7 30 1.2 47s8.2 36.5 24 41.7c16 5.1 47.8 1 61-21C99.4 45.5 87.9 6.7 53.9.5Z" fill="#F9C058"/>
  <path d="M171 116.3c-.7 11.9-10.6 17.7-22.1 17-11.5-.7-20.1-14.6-19.6-22.9.5-8.3 9.1-20.8 20.6-20.1 11.5.6 21.6 17.7 21 26Z" fill="#7155FF"/>
  <path d="M37.7 172.4c-13.5-11-14.3-24.8-6.5-34.2 7.7-9.5 32.5-18.1 52-1.2 15.2 13.2 8.1 33.3-2.2 39.9-11.8 7.6-33.8 3.3-43.3-4.5Z" fill="#005E67"/>
  <path d="M220.1 256.7c-.7 11.9-10.6 17.7-22 17-11.6-.7-20.2-14.6-19.7-23 .5-8.2 9.2-20.8 20.7-20 11.4.6 21.5 17.7 21 26Z" fill="#FF5A3D"/>
  <path d="M257 267c-.3 4.3-4 6.5-8.2 6.2-4.3-.2-7.5-5.4-7.3-8.5.2-3 3.4-7.7 7.6-7.4 4.3.2 8 6.5 7.8 9.6Z" fill="#101066"/>
  <path d="M132.6 204.3c-.3 4.4-4 6.5-8.2 6.3-4.2-.3-7.4-5.4-7.2-8.5.1-3 3.3-7.7 7.6-7.5 4.3.3 8 6.6 7.8 9.7Z" fill="#40009A"/>
</svg>
