<svg xmlns="http://www.w3.org/2000/svg" viewBox="0 0 198 198" width="88" preserveAspectRatio="xMidYMid meet">
  <path d="M99 0c3.02 0 6.03.14 9.03.41l-4.01 43.81A54.99 54.99 0 0 0 99 44V0Z" fill="#397275"/>
  <path d="M107.91.4a99 99 0 0 1 67.11 35.18l-33.78 28.19a55 55 0 0 0-37.29-19.55L107.91.4Z" fill="#00479C"/>
  <path d="M174.77 35.28a99 99 0 0 1 22.86 72.24l-43.83-3.79a55 55 0 0 0-12.7-40.13l33.67-28.32Z" fill="#7155FF"/>
  <path d="M197.69 106.83a99 99 0 0 1-143.3 80.55L74.2 148.1a55 55 0 0 0 79.62-44.75l43.86 3.48Z" fill="#FF5A3D"/>
  <path d="M55.85 188.1A99 99 0 0 1 1.39 82.49l43.38 7.34a55 55 0 0 0 30.25 58.67l-19.17 39.6Z" fill="#FFD215"/>
  <path d="M1.29 83.08a99 99 0 0 1 28.32-54.7l30.84 31.39A55 55 0 0 0 44.7 90.16L1.3 83.08Z" fill="#005E67"/>
  <path d="M29 29c3.8-3.8 7.9-7.29 12.27-10.43l25.66 35.75a55 55 0 0 0-6.82 5.79L29 29Z" fill="#8DC8CB"/>
  <path d="M41.04 18.74A99 99 0 0 1 99.06 0l-.03 44A55 55 0 0 0 66.8 54.4L41.04 18.75Z" fill="#678FBE"/>
</svg>
