<svg xmlns="http://www.w3.org/2000/svg" viewBox="0 0 120 99" width="120" preserveAspectRatio="xMidYMid meet">
  <path d="M98 36.82c.04-.1.07-.21.04-.31-.04-.14-.1-.24-.17-.38a35 35 0 0 0-2.37-6.3 32.63 32.63 0 0 0-7.85-10.67c-6.55-5.63-14.1-7.48-22.56-7.3-3.22 0-6.45.34-9.5 1.23a37.72 37.72 0 0 0-13.92 7.88c-5 4.67-9.09 10.63-10.94 17.25-2.77 9.98-3.32 19.48 2.81 28.36a37.25 37.25 0 0 0 7.75 8.16c.96.75 1.96 1.5 2.95 2.16.55.34 1.1.78 1.75.89a35.09 35.09 0 0 0 12.65 4.04h.1c1.72.2 3.47.28 5.22.2 1.6 0 3.22-.03 4.83-.27 3.12-.48 6.17-1.3 9.12-2.46a74.38 74.38 0 0 0 9.33-5.8c1.34-1 2.4-2.3 3.46-3.6a44.45 44.45 0 0 0 3.5-4.83c3.12-5.63 4.6-12.1 4.8-18.52.07-3.22-.24-6.55-1-9.73ZM63.61 13.7l.14-.31c2.06-.14 4.08-.07 6.28.07 9.73.51 17.69 5.62 22.35 14.2-.14.1-.27.26-.45.37a11.96 11.96 0 0 1-6.24 2.57c-.68-.07-.24.1-.96-.2 0-.04-.03-.08-.06-.1l-.04-.04c-.38-.69-.65-1.4-1.1-2.03-1.4-1.68-3.53-1.71-5.38-.85-1.61.75-3.46 2.64-4.49 3.08-.9.31-.86.35-1.5.41h-.04a4.64 4.64 0 0 1-1.27-1.47c-.41-.48-.17-2.3-.07-2.68.3-1.4.9-2.77 1.1-4.21.07-.45.1-.9 0-1.34a2.8 2.8 0 0 0-.59-1.2c-1.1-1.37-3.18-1.71-4.8-1.06-1.13.48-1.88 1.13-2.6 1.44l-.1.03c-.07 0-.1.04-.18.04l-.1-.1c-.86-1.31-.79-4.4.1-6.62Zm-5.38 64.76c.04.38-.41 1.51-.65 1.89a42.64 42.64 0 0 1-6.51-1.65c-3.33-1.23-5.11-2.33-8.1-4.39-.06-.06-.17-.1-.24-.13-5.76-4.5-11.04-11.35-11.8-19.55-.68-7.2 1.38-17.07 5.15-23.35.76-1.26 1.58-2.5 2.44-3.66 3.53 5.1 12.34 5.65 15.19 8.43 1.47 1.24-.18 2.54-2.54 2.92-1.03.24-2.13.17-3.02.75-1.92 1.2-2.43 3.67-2.33 5.8.07 1.2.55 2.4.34 3.63-.1.58-.4 1.03-1 1.2h-.06c-.07 0-.17 0-.27-.04-.83-.2-.59-.13-1.07-.34-.27 0-2.09-1.54-3.4-1.61-1.43-.1-2.7.86-3.39 2.06-.78 1.44-.72 3.19-.27 4.73a9.98 9.98 0 0 0 4.9 5.28c2.06.89 4.4.75 6.59 1.03 1.88.17 3.05.4 4.25.96h.03c.65.4.34.17 1 .75.27.41.13.04.37.72 0 .2.04.76 0 .96-.07.65-.07.9-.17 1.2-.38 1.72-1.95 3.02-1.95 4.87.17 1.99 1.68 3.74 3.5 4.53 1.7.65 2.26.75 2.6 1.06.07.07.17.14.24.24v.03c.24.65.2.76.17 1.68Zm28.15-7.03c-2.47 2.16-5.38 3.81-8.2 5.52-1.16.83-3.77 1.82-5.79 2.3-2.33.69-4.6 1.1-6.92 1.27-.42-.1-.86-.07-1.3 0l-1.76.1-1.33-.03c-.35 0-.72-.04-1.07-.07.42-1.06.45-2.33.07-3.4-.58-1.23-1.95-1.95-3.22-2.4-1.71-.5-1.95-.78-2.64-1.81-.93-1.54-.27-2.47.75-4.25.55-.96.86-2.03.9-3.16.03-.55.03-1.13-.18-1.64-1.13-2.27-3.77-3.16-6.13-3.6-2.81-.52-6.31-.35-7.65-1.03-.17-.1-.55-.31-.65-.41l-.1-.07c-.2-.14-.83-.76-1.03-.96a9.03 9.03 0 0 1-1.48-2.47c-.17-.38-.3-2.43-.1-2.81.41-1.54 1.4-2.4 2.33-2.54h.04c.75.45 1.47.96 2.3 1.34.95.38 1.98.75 3.05.62 1.78-.31 2.22-2.1 1.92-3.67-.72-3.09-.18-5.97 1.57-7.13.76-.42.59-.28 1.48-.42.82-.1 1.64-.27 2.43-.48 1.06-.3 2.33-1 2.6-2.12.25-1.03-.58-1.96-1.26-2.64-2.57-2.3-6.1-2.95-9.2-4.25-2.18-.93-3.35-1.51-4.8-2.82-.4-.48-.33-.3-.88-1.16-.17-.3-.41-.58-.76-.76A35.64 35.64 0 0 1 58.4 14.15c.96-.2 1.89-.38 2.78-.48-.72 2.44-.93 5.59.82 7.37.76.69 1.82 1.17 2.85.93 1.44-.34 2.12-1.27 3.15-1.58.62-.2.31-.14.72-.2h.14c.1 0 .24 0 .34.03h.07c.04 0 .07.03.1.03h.04c.07.07.1.18.17.24v-.03.03c.03.07.07.1 0 0l.14.31c.1 1.17-.07 1.51-.38 2.54-.48 1.65-1.13 3.33-.9 5.04.21 1.03.9 1.92 1.62 2.67 1.65 1.62 3.22 1.68 5.25.72 1.16-.61 3.36-2.46 3.84-2.74 1.02-.55 1.37-.58 2.19-.72h.14l.1.04.03.03c.14.07.55.9 1.1 1.95.79 1.27 2.44 1.79 3.88 1.79 1.71-.14 3.43-.65 4.93-1.44.62-.35 1.27-.69 1.85-1.13 1 2.09 1.96 4.7 2.44 6.48-.27.44-.79.65-1.78.96-2.75.82-7.38.44-10.9 1.3-1.45.3-2.82.86-4.12 1.58a8.3 8.3 0 0 0-3.02 2.53c-.41.59-.62 1.3-.72 2.03-.1.72-.07 1.44.17 2.12.62 2.06 2.68 2.75 4.56 3.12 1.3.28 2.6.96 2.75 1.07.54.44.92 1.06.99 1.92 0 1.06-.24 1.37-.41 2.57a6.6 6.6 0 0 0 2.06 6c1.02.92 2.4 1.37 3.5 2.23.06 0 1.02.89 1.33 1.33.27.31.41.72.69 1a33.78 33.78 0 0 1-4.53 5.65ZM96.05 53c-.62 3.02-2.02 7.99-3.98 11.21-.03.07-.07.14-.14.2a9.76 9.76 0 0 0-2.43-2.15c-.79-.52-1.65-.9-2.4-1.41a4.28 4.28 0 0 1-1.23-1.68 6.02 6.02 0 0 1-.21-3.77c.17-.69.34-1.4.3-2.13-.3-2.8-3-4.08-5.4-4.76-1.04-.28-1.9-.45-2.3-.62-.07-.03-.1-.07-.14-.1l-.1-.07c-.38-.48-.21-.2-.42-.76-.17-.61-.17-.4-.17-1.2.07-.89.04-.96.41-1.81 1.51-2.71 5.83-4.19 9.2-4.46 3.04-.38 6.2-.1 9.11-1.17.07-.03.1-.03.14-.06.82 4.83.62 9.87-.24 14.74ZM17.88 69.9c-.62.17-1.24.82-1.82 1.17-1.75 1.13-3.4 2.4-5.04 3.6-.65.79 1.27 1.75 1.85 1.2 1.85-1.34 3.7-2.75 5.45-4.19.28-.2.52-.4.79-.61.07-.07.1-.1.1-.2.07-.66-.82-1-1.33-.97ZM10.57 44.8c-.65-.85-1.81-.61-2.77-.68-2.23 0-4.5-.2-6.72-.17-.18.03-.42.13-.42.34-.06.65.8 1.06 1.34 1.13 2.06.07 4.12.17 6.17.2.59 0 1.17.04 1.75.04.2.03.45 0 .65-.14.24-.2.17-.51 0-.72ZM15.85 20.5c-.89-.7-1.75-1.38-2.64-2.06-1.5-1.14-2.91-2.47-4.39-3.64-.72-.51-2.09-.14-1.16.82a93.2 93.2 0 0 0 7.06 5.7c.41.27 1.4.44 1.48-.24a1.1 1.1 0 0 0-.35-.59ZM32.93 8.56c-.48-1-.93-1.99-1.37-2.98a51.98 51.98 0 0 1-1.62-3.77c-.24-.52-.3-1.2-.85-1.51-.45-.35-1.82-.55-1.58.37.72 2.1 1.68 4.08 2.6 6.07.7 1.2.55 2 1.69 2.44.48.24 1.47.1 1.13-.62ZM92.18 95.86c-.96-1.61-1.96-3.2-2.92-4.8-.48-.69-.75-1.55-1.37-2.13-.48-.51-2.23-.62-1.58.48 1.27 2.16 2.57 4.32 3.88 6.45.55.75.82 1.85 1.71 2.26.41.2 1.27.3 1.34-.3-.2-.7-.76-1.28-1.06-1.96ZM110.07 80.15c-.4-.38-.82-.75-1.23-1.1-1.27-1.13-2.5-2.22-3.74-3.39-.58-.51-1.06-1.13-1.71-1.54-.72-.52-2.1-.14-1.17.82 2.2 2.06 4.36 4.18 6.69 6.07.4.27 1.4.44 1.47-.24a.9.9 0 0 0-.3-.62ZM119.06 50.53c-.83-1-2.3-.58-3.47-.76-1.88 0-3.77-.34-5.66-.4-.17.03-.37.13-.4.34-.08.65.78 1.06 1.33 1.13 1.95.24 3.9.37 5.86.44.55.04 1.1.04 1.65.07.2.04.44 0 .65-.14.28-.17.17-.48.04-.68ZM114.3 23.51c-.28-.58-.97-.89-1.59-.86-.61.14-1.06.7-1.6.96-1.35.9-2.68 1.75-4.02 2.64-.34.21-.72.45-1.06.7a.56.56 0 0 0-.14.23c-.1.79 1.37 1.44 1.99 1 1.65-1.07 3.29-2.13 4.94-3.23l1.37-.92c.13-.1.17-.35.1-.52Z"/>
</svg>
