<svg xmlns="http://www.w3.org/2000/svg" viewBox="0 0 93 91" width="93" preserveAspectRatio="xMidYMid meet">
  <path d="m66.16 10.92.02-.25v-.02c0-.14-.02-.28-.05-.4-.11-.15-.29-.25-.44-.32a163 163 0 0 1-4.83-2.38c-4.1-2.07-7.88-4.2-12.48-6.28-.72-.3-1.44-.64-2.23-.74-1.23-.08-1.41.4-.9 1.33 1.04 2.26 2.1 4.52 3.16 6.77 1.61 3.32 3.21 6.65 5 9.9a1.44 1.44 0 0 0 1.49.81c.3.03.59-.01.74-.17 3.27-2.69 7.34-5.84 10.4-7.91l.12-.34Zm-2.6.12c-1.07.74-2.12 1.5-3.17 2.28-1.91 1.4-3.73 2.89-5.57 4.37-2.55-4.68-4.78-9.5-7.02-14.3-.18-.4-.48-1.01-.68-1.47 1.01.42 2.5 1.15 3.5 1.64 3.97 1.95 7.03 3.65 11.18 5.72.83.42 1.67.82 2.51 1.22-.24.15-.48.35-.75.54ZM92.7 31.44c-2.53-3.08-4.54-5.96-6.97-9.4-.6-.9-1.16-1.8-1.68-2.74-.24-.4-.34-.92-.83-1.11-.38-.23-1.42-.28-1.36.26a.32.32 0 0 0-.12.15l-.68 1.33c-1.86 3.83-3.77 7.66-5.33 11.6l-.71 1.87c-.1.27-.26.57 0 .8.11.1.27.2.46.28.27.16.63.25.87.24 3.93-.37 7.87-.86 11.76-1.57a78.5 78.5 0 0 0 4-.81c.14-.03.28-.1.36-.2.15-.05.3-.11.36-.26a.44.44 0 0 0-.13-.44Zm-13.38 1.75-2.24.26c1.68-4.42 3.74-8.7 5.86-12.96.96 1.6 2.09 3.13 3.19 4.65 1.5 2.08 2.99 4.17 4.62 6.16-.36.07-.72.18-1.05.24-3.44.71-6.9 1.24-10.38 1.65ZM15.65 55.56l.01-.02-.01.02ZM38.36 52l.03.01-.08-.04.05.03Z"/>
  <path d="M86.44 1.31c-.11-.2-.43-.36-.78-.45A1.8 1.8 0 0 0 84.44.6c-.4.1-.67.42-1.02.61L80.56 3.2a437.55 437.55 0 0 0-27.27 20.72c-1.42 1.13-2.87 2.23-4.32 3.33a.61.61 0 0 0-.07-.07c-.47-.4-1.16-.52-1.74-.76a41.64 41.64 0 0 0-4.15-1.16c-3.9-.85-8.57-1.34-12.31.41-5.64 3.33-8.24 9.35-9.86 14.95-1.15 3.89-1.93 7.94-3.54 11.71a30.84 30.84 0 0 1-1.65 2.9 34.42 34.42 0 0 1-1.68 2.14 47.56 47.56 0 0 1-6.06 5.87C6.26 64.6 4.35 65.8 2.8 67.3a11.32 11.32 0 0 0-1.72 9.16l.49 1.35.41.85c.24.42.48.84.75 1.24 2.4 3.46 5.48 6.78 9.61 8.63 2.36.97 4.92 1.69 7.56 1.76 5.24.03 10.3-2.18 13.2-6.21a30.26 30.26 0 0 0 3.74-7.45c.7-1.84 1.37-3.69 2.08-5.53.46-1.16.96-2.37 1.58-3 .76-.75 1.68-1.18 2.83-2.02a97.53 97.53 0 0 0 5.07-3.75c1.58-1.26 3.2-2.5 4.47-4.01a15.26 15.26 0 0 0 2.6-4.1c.5-1.14.48-2.35.41-3.55a48.34 48.34 0 0 0-.6-5.16c-.63-3.45-1.38-9.18-4.11-11.69a3.09 3.09 0 0 0-1.59-.59l.2-.2c.32-.4.6-.81.82-1.26 3.62-.49 7.23-1 10.84-1.58l.58-.1c.02 3.6.02 7.2.2 10.78.16 2.67.16 5.43.91 8 .37.45 1.28.7 1.82.32a.32.32 0 0 0 .08-.13c.15-.05.3-.11.35-.26l.44-1.13c1.9-4.75 4.13-9.4 6.29-14.07 2.17-4.64 4.27-9.31 6.41-13.96 2.28-5.03 4.6-10.04 6.87-15.08.37-.85.75-1.7 1.05-2.56.07-.22.2-.49 0-.68Zm-35.32 35.3.12.27c.72 1.67 1.2 3.8 1.6 5.98l.03.15a2.14 2.14 0 0 1-.64-.43 7.17 7.17 0 0 1-.93-2.09 8.23 8.23 0 0 1-.18-3.88Zm1.92 7.34c.34 1.93.64 3.87.78 5.82.05 1.12.16 2.32-.06 3.02a10.28 10.28 0 0 1-1.81 3.54 17.89 17.89 0 0 1-3.28 3.47 94.94 94.94 0 0 1-6.32 4.86c-1.23.89-2.47 1.65-3.33 2.28-1.44 1.3-1.87 3.2-2.57 4.87-1.7 4.37-3.12 9.28-6.12 12.62a14.56 14.56 0 0 1-12.95 4.46c-4.05-.72-7.05-2.42-10.2-5.87l-.02-.01a17.07 17.07 0 0 1-2.18-2.41C3.1 77.76 2.08 74.34 2.5 72c.09-.5.2-1 .33-1.5.52-.97 1.24-1.88 2.15-2.7 2.84-2.35 5.96-4.43 8.47-7.09a41.5 41.5 0 0 0 2.43-2.6c1.58-1.25 2.78-3.43 3.75-5.94l.25-.56a.27.27 0 0 0 .03-.19c1.44-4 2.37-8.62 3.32-11.48 1.6-5.25 4.46-10.69 9.2-13.34 1.05-.5 1.5-.54 2.88-.77 1.33-.17 2.92-.2 4.54.01a32.89 32.89 0 0 1 7.49 1.83c.25.1.5.2.77.25l-1.62 1.26c-.1-.02-.18-.02-.25-.02-1.66-.05-3.31-.1-4.97-.09-3.25.04-6.83.1-9.47 2.1-2.01 1.5-3.63 3.36-5.1 5.28-.63.85-1.22 1.72-1.74 2.62-.1.24-.4.48-.3.73.2.58 1.64.97 2 .36a28.9 28.9 0 0 1 4.85-6.32c1.99-1.98 3.54-3 6.19-3.36 1.64-.22 4.94-.25 7.35-.18h.03l-.87.7a1.63 1.63 0 0 0-.32-.03c-.56.04-1.04.38-1.56.56-1.07.47-2.13.95-3.18 1.46a45.2 45.2 0 0 0-6.27 3.64c-1.07.77-2.2 1.55-2.96 2.6-.57.72-.9 1.56-1.14 2.4-.5 1.6-.8 3.24-1.06 4.88.14.3.38.54.76.66.37.13.8.1 1.13-.12l.13-.1c.24-1.54.53-3.06.98-4.55.46-1.6.9-2.47 2.16-3.55 2.59-2.13 5.02-3.48 8.25-5.05 1-.48 2-.93 3-1.36a1.9 1.9 0 0 0 1.01.08l2.89-.4-.14.17c-1.08 1.16-2.07 1.6-3.15 2.34a25.65 25.65 0 0 0-6.3 5.09 23.32 23.32 0 0 0-3.2 5.97 7.9 7.9 0 0 0-.24 3.82c.6 3.01 3.52 4.66 6.8 3.52 1.95-.73 3.48-2.22 4.66-3.76 1.05-1.64 1.32-3.56 1.46-5.4.2-2.66.26-4.59 1.02-7.19l.15-.46a8.73 8.73 0 0 0 .16 3.87c.22.78.46 1.6 1 2.26a4.42 4.42 0 0 0 2.8 1.6Zm-14.59 8.1-.09-.05-.06-.03c-1.03-.64-1.74-3-1.31-4.62.35-1.75 1-3.45 1.94-5.03l.63-.94a20.97 20.97 0 0 1 5.51-4.96c.65-.48 1.45-.93 2.26-1.44-.91 2.3-1.17 4.72-1.35 7.12-.16 2.55-.3 5.4-2.12 7.27-1.21 1.33-2.68 2.43-3.73 2.65-1.1.22-.92.2-1.33.15l-.1-.03c-.11-.04-.21-.08-.3-.13l.05.04Zm41.64-40.8-7.9 17.27c-2.53 5.62-5.29 11.17-7.65 16.85-.37-3.49-.36-7.02-.45-10.53-.02-1.28-.02-2.57-.02-3.85V29.8c0-.12 0-.25-.06-.36.02-.6-1-.88-1.57-.78-4.5.77-9.01 1.43-13.53 2.02l-1.81.24c.7-.54 1.41-1.07 2.1-1.62 2.33-1.8 4.68-3.56 6.97-5.4A413.12 413.12 0 0 1 83.8 3.04c-1.08 2.54-2.59 5.68-3.7 8.21Z"/>
</svg>
