<svg xmlns="http://www.w3.org/2000/svg" viewBox="0 0 111 88" width="111" preserveAspectRatio="xMidYMid meet">
  <path d="M110.47 52.47c-.7-8.82-6.85-17.95-16.06-19.21-6.07-1.05-10.48 4.1-14.76 7.6-2.44 2.05-5.37 4.32-7.6 5.4a23.15 23.15 0 0 1-12.39 2.36c-9.3-.82-16.63-5.67-27.15-1.44-.1 0-.22.05-.3.05a.95.95 0 0 0-.23.13 7.35 7.35 0 0 1-1.7-2.1c-.96-2.05-.83-3.4-1.48-5.76a8.26 8.26 0 0 0-5.42-5.76 8.35 8.35 0 0 0-2.27-.44h-.13a8.64 8.64 0 0 0-2.97-2.05c-1.7-.83-3.66-1-5.5-.4-.43.18-1 .27-1.35.57a4.76 4.76 0 0 0-4.76-2.57c-1.79.22-3.14 1.66-3.97 3.19C-.2 37.58.9 44.74 1.9 49.84c-.04-.12 0-.08 0 .05.05.4.14.79.18 1.18.09.4.17.74.22 1.09.04.4.08.7.26.96.13.44.26.92.4 1.48 0 2.27.25 4.5.65 6.73.6 3.4 1.96 6.63 3.4 9.73 1.66 3.76 4.46 6.81 7.55 9.43a32.37 32.37 0 0 0 10.92 5.59c4.45 1.44 9.17 1.62 13.84 1.48 2.75-.04 5.45-.43 8.12-1.22 3.93-1.22 7.6-3.1 11.48-4.45 4.58-1.8 11.96-2.58 16.2-2.49 10.51-.04 23.52 1.92 30.11-8.38 3.63-5.33 5.85-11.96 5.24-18.55ZM22.33 35.3c.62.04.88.17.97.22 1.3.57 2.35 1.4 3.05 4.63.44 2.44.79 5.71 3.76 8.07l.04.05c-.09 0-.13 0-.22.04-.78.44-1.53.92-2.27 1.4a11.56 11.56 0 0 1-4.58-6.73c-.53-2.4-.44-4.89-.96-7.33-.05-.13-.05-.22-.1-.35.14-.04.23 0 .32 0ZM5.13 45.44a8.02 8.02 0 0 0-1.22 2.8c0-.14-.04-.31-.04-.44-.44-4.37-.66-9.17.52-12.8.7-2.13 1.66-3.62 3.19-4.14.04 0 .13-.05.17-.05.1 0 .18-.04.27-.04h.18c.08.09.17.13.25.22.4.52.88 2.66 1.05 3.7a100.8 100.8 0 0 0 2.4 9.83 7 7 0 0 0-1.74-.74c-1.75-.4-3.89.13-5.02 1.66ZM5.84 58c-.21-2.8-.17-5.1.4-7.42.83.7 1.13.57 1.83 1.09.44 1.88.35 5.76-.48 7.81-.3.88-.87 1.44-1.4 1.8-.13-1.05-.26-2.1-.35-3.28Zm101.76-.52c-.43 4.01-3.32 10.65-5.94 13.7-5.93 7.3-14.97 6.5-23.52 6.38-9.91-.3-17.34.52-26.46 4.67-5.02 2.18-8.95 3.5-14.45 3.45-3.97.08-8.51-.13-12.96-1.8-.35-.12-1.84-.7-2.23-.87-1.88-.83-2-.91-3.84-2.05-1.84-1.09-2.53-1.92-4.41-3.7-2.53-2.41-4.02-5.29-5.63-9.22-.7-1.66-1.18-3.1-1.57-4.54 3-.61 3.97-3.14 4.23-5.98.13-1.53.17-3.06 0-4.58a2.69 2.69 0 0 0-1-2.1 9.91 9.91 0 0 0-1.84-1.13c-.48-.27-1-.53-1.53-.53.22-.87.53-1.74 1.05-2.49.09-.08.13-.17.22-.21 0-.1.52-.44.74-.57.79-.35.44-.18 1.23-.35H9.85c.09 0 .17.04.26.09.13.04.35.17.53.21 4.06 2.27 5.54 13.32 13.48 16.94 5.64 2.66 10.61.7 15.63-2.1 2.4-1.3 5.33-1.96 6.81-1.83 2.4.13 2.8.27 4.54 1.05.57.35 1.1.83 1.75.83 1.27.09 1.22-1 .3-1.53-3.88-2.66-9.2-2.88-13.48-1.13-2.32.96-4.46 2.35-6.81 3.23-3.63 1.18-5.77 1.18-8.65-.3-2.8-1.4-5.02-5.42-7.38-10.14a22.18 22.18 0 0 0-2.18-3.62c-.04-1.4-.83-3.93-1.57-6.8-.57-2.02-.87-4.29-1.44-6.6.04-.04.09-.04.09-.09.3-.22 1.09-.6 1.92-.96.78-.26.65-.26 1.4-.35.13-.04.39-.04.52-.04.17 0 .35 0 .48.04.13.05.26.05.4.09.04 0 .08.04.17.04.04.05.13.05.17.09 1.35.66.66.18 1.75 1.14 1.22.78.78 6.59 2 10.04.97 2.79 2.89 5.15 5.33 6.85a161.2 161.2 0 0 0-3.4 2.44l-.79.53c-.44.3-.92.6-1.27.96-.17.13-.21.35-.17.52.04.13.09.22.13.3 1.05-.12 2.05-.3 3.06-.56.43-.17.83-.35 1.26-.48.26-.13.53-.26.74-.4.66-.34 1.31-.7 1.93-1.08 1.61-1.05 3.27-2.14 4.67-2.97.04-.05.08-.05.13-.09.04 0 .04-.04.08-.04.05-.05.14-.09.22-.13.18-.1.35-.18.57-.27h.04l.1-.04c3-1.35 6.15-2 8.9-2 4.4.08 7.55 1.21 12.22 2.26 5.37 1.27 11.09 1.44 16.37-.35 4.8-1.61 8.69-4.97 12.49-8.2 2.61-2.27 5.23-4.68 7.94-5.64 4.54-1.35 9.21 1.18 12.57 5.81 3.4 4.32 4.76 10.13 3.93 16.2Z"/>
  <path d="M65.12 1.7A9.71 9.71 0 0 0 58.87.65a9.6 9.6 0 0 0-5.28 2.88c-.35.35-.7.7-1 1.05-2.05-1.57-4.63-2.4-7.12-2.88-2.84-.61-5.54-.3-7.81 1.66C36 4.93 35.39 7.24 35.3 9.42c-.04 2.71 1.18 5.24 2.58 7.51 2.27 3.67 5.24 6.77 8.42 9.6 1.84 1.67 3.67 3.32 5.55 4.9.7.56 1.4 1.35 2.4 1.35.65.26 1.4.3 1.66-.18 4.32-7.77 21.34-23.35 9.2-30.9ZM53.68 30.6c-.44-.35-.83-.7-1.27-1.05a184.33 184.33 0 0 1-4.36-3.89c-3.23-2.96-5.2-4.93-7.55-8.5-1.23-1.93-2.45-4.16-2.5-6.6-.04-4.06 1.88-6.46 4.77-7.12 1.83-.35 4.19.3 5.5.79 2.22.87 2.14.83 3.62 2.18.4.44 1 .74 1.61.7.44.04.66-.13.8-.4.34-.12.56-.52.86-.78 1.75-1.92 3.8-3.23 5.37-3.36 1-.13 1.14-.09 2.54.09.13.04.26.04.39.09l.09.04c.78.4.96.48 1.57 1.05.65.74.6.6 1.22 1.96 2.31 7.42-8.08 17.6-12.66 24.8Z"/>
</svg>
