<svg xmlns="http://www.w3.org/2000/svg" viewBox="0 0 109 92" width="109" preserveAspectRatio="xMidYMid meet">
  <path d="M107.09 13.02c-.08-2.08-.19-4.27-1.1-6.2a5.73 5.73 0 0 0-2.15-2.23 18.3 18.3 0 0 0-5.07-2.33C90.89-.26 82.46.46 74.28.9c-4.85.29-9.7.5-14.56.95-3.32.36-6.78.62-9.85 2.08-3.36 1.5-4.89 5.1-5.54 8.5a61.3 61.3 0 0 0-1.28 11.53c-.04 5.44-.55 14.05 4.96 17 2.45 1.43 5.4 1.46 8.17 1.46 1.2-.03 2.45-.1 3.69-.22 1.2 3.5 2.63 6.94 4.01 10.33l1.97 4.93c.48.94 1.94 1.45 2.74.62.91-1.03 1.53-2.27 2.23-3.43 1.02-1.83 2-3.69 2.95-5.55 1.13-2.26 2.3-4.53 3.4-6.82.43-.22.36-.15 1.2-.26 1.68-.15 3.4-.15 5.1-.18 4.57-.11 9.24-.08 13.66-1.32 3.1-.94 5.54-3.24 6.82-6.2 2.04-4.16 2.7-8.83 3-13.43.14-2.59.21-5.25.14-7.88Zm-2.38 5.91c-.29 4.9-.61 8.87-2.51 13.32-.77 1.75-1.46 3.18-2.52 4.23-2.37 2.38-4.6 2.85-7.74 3.29-2.77.33-5.58.44-8.39.5-1.82.05-3.61.05-5.44.15-1.02.11-2.18.04-3.02.7-2.01 3.83-3.84 7.77-5.95 11.57-.48.9-1.28 2.26-1.86 3.2-1.24-3.17-3.1-7.51-4.35-10.83l-.98-2.74a4.15 4.15 0 0 0-2.88-1.68h-.04c-1.9.19-3.76.3-5 .26-2-.11-2.99-.11-4.49-.62-1.57-.58-3.2-2.3-3.83-6.06-1.06-6.64-.62-23.39 3.76-27.33 2.63-2.37 5.7-2.66 9.41-3.14 3.95-.43 7.92-.65 11.9-.87 6.6-.26 12.59-.99 18.65-.59 5.25.33 9.56 1.13 12.88 3.14 1.27.95 1.05.59 1.64 1.72.66 1.6.66 2.8.8 4.78.11 2.3.08 4.67-.03 7Z"/>
  <path d="M85.45 16.3a4.98 4.98 0 0 0-4.01-2.92c-1.57-.18-3.03.7-4.2 1.65-.58.47-1.13.98-1.64 1.53-1.79-1.83-4.53-3.14-7.08-2.34a3.1 3.1 0 0 0-2.12 2.41c-.18 4.42 4.56 8.98 7.3 12.12 1.02 1.02 1.93 2.22 3.07 3.13 1.67 1.03 2.73-.22 3.68-1.53 2.66-3.57 6.02-9.52 5-14.05Zm-6.24 11.75c-.47.73-1.24 1.75-1.75 2.26-2.45-2.55-6.53-6.7-8.07-10.07a6.29 6.29 0 0 1-.62-2.99 2.2 2.2 0 0 1 1.87-1.64c1.16-.11 2.22.22 3.64 1.82.11.11.26.19.4.3-.03.32.3.69.55.87.44.26 1.1.48 1.57.15.62-.7 1.28-1.39 2-2 1-.92 2.38-1.65 2.86-1.69.1-.03.21-.03.32-.03h.15l.07.03h.08l.18.08c.07.03.1.07.18.1.22.22.4.22.66.8.65 3.36-1.64 8.4-4.09 12.01ZM40.82 47.06c-4.52-4.48-11.09-6.7-17.4-6.42-.51.04-1.06.04-1.57.08-.04 0-.07-.04-.11-.04l-1.39.22-5.65 1.75c-4.02 1.71-8 4.27-10.18 7.19C1.38 53.92.14 59.25.58 64.32c.5 3.5 1.3 7.05 2.55 10.37a20.04 20.04 0 0 0 7.63 8.8 20.57 20.57 0 0 0 6.35 2.95c4.92 1.2 10.1.14 14.85-1.39 1.31-.47 2.62-.88 3.94-1.39 1.57-.98 3.1-2.04 4.52-3.2.77-.7 1.46-1.47 2.15-2.27.3-.44.62-.84.92-1.28-.04 0-.08-.03-.11-.03a18.83 18.83 0 0 0 3.61-6.54c2.88-8.39-.18-16.96-6.17-23.28Zm-17.7 38.17c-2.15.26-3.02.3-5.21-.07-4.49-.8-10.99-5.18-12.96-11.31a54.19 54.19 0 0 1-1.56-5.91c-.26-.88-.73-4.2-.59-5.91a19.27 19.27 0 0 1 3.72-10.91c.77-1.14 2.78-3 4.53-4.13A25.04 25.04 0 0 0 5.5 57.1a23.88 23.88 0 0 0 1.6 16.27c1.9 3.8 4.71 6.32 8.55 8.14 2.7 1.28 5.5 2.48 8.46 2.96.84.1 1.72.18 2.56.22-1.06.21-2.16.4-3.54.54ZM45.8 64.58c-.48 5.84-3.1 10.7-7.89 14.52-3.17 2.67-8.39 4.02-11.75 3.94-3.32-.07-4.85-.65-7.59-1.75-3.1-1.24-5.54-2.73-7.15-4.56-4.38-5.22-5.58-13.83-3.17-20.36 2.15-6.1 6.38-10.98 12.04-13.25 1.28-.5 1.53-.47 2.63-.76l.03-.04c4.67-.33 8 .18 12.04 2.23a17.62 17.62 0 0 1 6.6 6.1c2.82 4.08 4.57 8.6 4.2 13.93Z"/>
  <path d="M33.96 63.6a6.25 6.25 0 0 0-2.52-2.45 13.66 13.66 0 0 0-3.28-1.39c-.22-2.3-.4-4.6-.51-6.93.95 0 1.79.07 2.4.22.77.15.45.18 1.54.51 1.39.22 1.13-1.02.11-1.42-1.28-.62-2.7-.84-4.12-.92 0-.43-.04-.87-.04-1.35 0-.69-.04-1.42 0-2.11-.04-.33.11-.7-.07-.95-.3-.66-2.01-1.28-2.2-.3-.03 1.58 0 3.18.04 4.75-.47.04-.94.11-1.42.18-.04-1.16-.1-2.3-.18-3.46 0-.88-2.12-1.68-2.3-.62l.22 4.81a6.4 6.4 0 0 0-2.04 1.54c-1.06 1.1-1.9 2.62-1.43 4.2.62 1.78 2.3 2.33 4.02 2.55.29 3.43.65 6.86 1.1 10.25-1.98-.47-2.56-.98-4.17-2.15-.47-.33-1.79-.44-1.53.47.47.77 1.42 1.24 2.15 1.75 1.13.7 2.41 1.17 3.72 1.5l.77 5.4c.04.88 2.12 1.68 2.3.62-.3-1.9-.55-3.83-.8-5.73.58 0 1.2 0 1.82-.1.11.76.22 1.52.37 2.25.07.3.03.66.21.95a1.7 1.7 0 0 0 1.86.73c.19-.07.37-.22.33-.44l-.22-1.35c-.14-.87-.29-1.75-.4-2.62 2.16-.59 3.98-1.64 4.6-4.05a6.2 6.2 0 0 0-.33-4.35Zm-12.73-4.75-.4-.1c-.04-.04-.11-.04-.19-.08-.69-.88-.18-2.52 1.13-3.83.08 1.38.19 2.77.3 4.12-.37-.04-.7-.07-.84-.1Zm3.03-1.17c-.11-1.42-.19-2.84-.26-4.23.48-.18.95-.3 1.17-.33l.25-.03c.11 2.08.26 4.16.48 6.24-.44-.08-.99-.11-1.53-.19l-.11-1.46ZM25.57 71c-.44-3.43-.8-6.86-1.1-10.29.15 0 .3 0 .44.04l1.1.1c.36 3.33.8 6.61 1.31 9.9-.58.1-1.17.22-1.75.25Zm5.66-2.19a4.52 4.52 0 0 1-1.83 1.32l-.33-2.34c-.29-2.15-.54-4.3-.76-6.5.87.26 1.6.59 2.22.95.95.59 1.02.8 1.32 1.25.8 1.71.4 4.08-.62 5.32ZM103.98 61.7a20.47 20.47 0 0 0-10.4-4.93c-5.76-.58-12.58.73-17.3 5.04-.76.8-1.45 1.68-2.07 2.59l-.44.73c-.29.76-.62 1.53-.95 2.26l-.1.4a13.3 13.3 0 0 0-.92 5.07 12.2 12.2 0 0 0 1.28 4.97c1.13 3.13 3.2 5.9 5.84 8.5 4.6 4.74 11.3 6.02 18.13 3.5 7.37-2.66 11.86-9.12 11.9-16.6a15.71 15.71 0 0 0-4.97-11.53Zm-16.3 26.89a14.2 14.2 0 0 1-8.47-4.45c-2.08-1.97-5.04-6.39-5.26-8.83-.32-2.15-.29-3.25.26-5.73.07-.22.1-.47.18-.7a.68.68 0 0 0 .08-.25c.07-.33.18-.66.29-.98.29-.7.65-1.35 1.06-1.97 3.9-4.97 11.12-6.97 17.44-6.5 3.14.22 6.27 1.68 8.68 3.32 5.22 3.61 6.57 9.45 4.49 15.5-2.77 7.38-11.28 11.58-18.76 10.59Z"/>
  <path d="m98.91 67.06-2.04 1.39a5.04 5.04 0 0 0-4.01-1.32c-1.54.3-2.63 1.28-2.56 2.92.04.84.4 1.72.84 2.56-.36.25-.7.54-1.06.8-1.17.91-2.26 1.9-3.4 2.85a6.6 6.6 0 0 1-.4-1.57c-.07-.37 0-.77-.17-1.1-.37-.62-1.4-1.06-2.05-.65-.25.21-.1.54-.1.8.07.73.21 1.42.43 2.11.18.59.44 1.17.8 1.68l-3.17 2.85c-.59.7.7 1.42 1.31 1.46.22 0 .48 0 .7-.15.5-.43.98-.87 1.5-1.31.43-.4.87-.8 1.3-1.17.4.3.8.51 1.28.66 3.76 1.39 7.4-.55 6.28-4.9a9.24 9.24 0 0 0-.66-1.52c.8-.62 1.64-1.2 2.48-1.8.15-.06.26-.17.37-.25.03.33.03.66-.04.95 0-.07.07-.29 0-.1-.04.28-.25.54-.18.8.14.76 1.75 1.45 2.22.69.44-1.2.26-2.45-.32-3.58.76-.55 1.53-1.06 2.3-1.57.18-.14.47-.22.47-.47.1-.84-1.46-1.53-2.12-1.06Zm-6.67 8.17c.36 3.65-2.89 3.69-3.87 3.22-.15-.08-.3-.15-.44-.3 1.39-1.2 2.77-2.4 4.2-3.54.07.22.1.44.1.62Zm.36-4.78c.07-1.02.4-1.38 1.5-1.75.07-.03.22-.03.29-.03h.14c.04 0 .08.03.15.03l.07.04h.04l.1.04.05.03c.29.15.47.33.65.51-.95.66-1.93 1.35-2.84 2.05-.15-.33-.19-.62-.15-.92Z"/>
</svg>
