<svg xmlns="http://www.w3.org/2000/svg" viewBox="0 0 776 772" preserveAspectRatio="xMidYMid meet" fill="#000" opacity=".55">
  <path id="bubble-1" d="M163.866 508.737C125.116 540.082 148.167 594.029 162.331 616.697C176.494 639.364 214.424 641.214 237.595 626.736C260.767 612.258 268.069 582.145 253.905 559.478C239.742 536.81 207.808 473.191 163.866 508.737Z"/>
  <path id="bubble-2" d="M191.701 365.524C205.025 363.974 224.939 335.864 231.088 316.278C237.236 296.692 223.144 278.761 210.887 273.195C191.272 264.287 158.023 266.761 154.843 302.787C151.585 339.692 162.808 368.885 191.701 365.524Z"/>
  <path id="bubble-3" d="M303.353 172.086C289.186 186.252 258.478 183.873 239.868 165.263C220.669 146.064 211.695 121.701 222.402 110.995C243.464 89.932 275.898 120.501 291.369 135.972C306.84 151.443 314.059 161.38 303.353 172.086Z"/>
  <path id="bubble-4" d="M561 242.529C561 261.583 546.42 283 525.991 283C505.561 283 489 267.554 489 248.5C489 229.446 505.561 214 525.991 214C546.42 214 561 223.475 561 242.529Z"/>
  <path id="bubble-5" d="M556.819 703.261C573.395 699.372 595.016 707.74 599.204 725.591C603.392 743.443 593.349 761.066 576.773 764.955C560.197 768.844 543.365 757.525 539.177 739.674C534.989 721.823 540.243 707.149 556.819 703.261Z"/>
  <path id="bubble-6" d="M316.406 620.06C299.882 632.226 298.075 648.376 306.626 659.991C315.178 671.606 350.816 666.192 362.166 657.291C380.821 642.663 379.369 625.82 367.655 617.404C354.151 607.701 328.021 611.508 316.406 620.06Z"/>
  <path d="M337.94 242.3c2.67 3.48 1.3 7.5-2.08 10.1-3.39 2.6-9.17.8-11.05-1.66-1.88-2.45-2.49-8.06.9-10.65 3.39-2.6 10.34-.25 12.23 2.2Z"/>
  <path d="M67.16 11.93c33.88 13.18 62.59-.16 66.18 31.9 2.5 22.21-45.98 42.04-83.78 38.96-21.8-1.77-47.7-26.94-45.86-49.5C6.52-1.46 22.63-5.4 67.16 11.93Z"/>
  <path d="M724.39 303.62c19.71-4.65 20.83-30.54 19.66-42.31-1.16-11.78-14.7-20.08-25.73-18.98-11.03 1.09-30.4 11.28-29.23 23.06 1.16 11.77 12.95 43.5 35.3 38.23Z"/>
  <path d="M767.8 617.16c3.02 17.8-15.18 46.45-38.56 50.43-24.11 4.1-46.25-9.33-48.54-22.78-4.5-26.46 34.87-34.36 54.3-37.67 19.44-3.3 30.5-3.43 32.8 10.02Z"/>
  <path d="M679.94 566.3c2.67 3.48 1.3 7.5-2.08 10.1-3.39 2.6-9.16.8-11.05-1.65-1.88-2.46-2.49-8.07.9-10.66 3.39-2.6 10.34-.25 12.23 2.2Z"/>
  <path d="M235.94 691.3c2.67 3.48 1.3 7.5-2.08 10.1-3.39 2.6-9.17.8-11.05-1.65-1.88-2.46-2.49-8.07.9-10.66 3.39-2.6 10.34-.25 12.23 2.2Z"/>
  <path d="M297.94 127.3c2.67 3.48 1.3 7.5-2.08 10.1-3.39 2.6-9.17.8-11.05-1.66-1.88-2.45-2.49-8.06.9-10.65 3.39-2.6 10.34-.25 12.23 2.2Z"/>
  <path d="M701.94 177.3c2.67 3.48 1.3 7.5-2.08 10.1-3.39 2.6-9.16.8-11.05-1.66-1.88-2.45-2.49-8.06.9-10.65 3.39-2.6 10.34-.25 12.23 2.2Z"/>
  <path d="M525.94 212.3c2.67 3.48 1.3 7.5-2.08 10.1-3.39 2.6-9.16.8-11.05-1.66-1.88-2.45-2.49-8.06.9-10.65 3.39-2.6 10.34-.25 12.23 2.2Z"/>
  <path d="M701.94 723.3c2.67 3.48 1.3 7.5-2.08 10.1-3.39 2.6-9.16.8-11.05-1.65-1.88-2.46-2.49-8.07.9-10.66 3.39-2.6 10.34-.25 12.23 2.2Z"/>
</svg>
