<svg xmlns="http://www.w3.org/2000/svg" viewBox="0 0 312 346" preserveAspectRatio="xMidYMid meet">
  <path opacity=".55" d="M209.04 313.62c7.8-1.83 17.96 2.1 19.93 10.5 1.96 8.38-2.76 16.67-10.55 18.5-7.79 1.82-15.7-3.5-17.67-11.89-1.97-8.39.5-15.28 8.3-17.11ZM192.31 204.07c10.96 31.05 34.9 41.37 56.73 33.67 21.83-7.7 27.33-48.9 19.63-70.72-7.7-21.83-28.02-17.58-49.85-9.88-21.82 7.7-34.2 25.1-26.5 46.93ZM106.17 96.96c1.25 1.64.61 3.53-.98 4.75-1.6 1.22-4.3.38-5.2-.78-.88-1.15-1.16-3.79.43-5 1.6-1.23 4.86-.12 5.75 1.03ZM24.35 222.2c-18.21 14.72-7.38 40.08-.72 50.73 6.66 10.66 24.48 11.53 35.37 4.72 10.9-6.8 14.33-20.96 7.67-31.61-6.66-10.65-21.67-40.55-42.32-23.85ZM37.44 154.88c6.26-.73 15.62-13.94 18.5-23.15 2.9-9.2-3.73-17.63-9.49-20.25-9.22-4.18-24.84-3.02-26.34 13.91-1.53 17.35 3.75 31.07 17.33 29.49ZM287.8 125.78c9.27-2.18 9.8-14.35 9.25-19.89-.55-5.53-6.91-9.43-12.1-8.91-5.18.5-14.29 5.3-13.74 10.83.55 5.54 6.09 20.45 16.6 17.97ZM96.05 274.51c-7.77 5.72-8.62 13.31-4.6 18.77 4.02 5.46 20.77 2.92 26.1-1.27 8.77-6.87 8.1-14.79 2.59-18.75-6.35-4.56-18.63-2.76-24.1 1.25ZM308.2 273.15c1.43 8.36-7.13 21.83-18.11 23.7-11.34 1.93-21.74-4.38-22.82-10.7-2.12-12.44 16.39-16.15 25.52-17.7 9.14-1.56 14.34-1.62 15.42 4.7ZM211 97.07c0 8.96-6.84 19.02-16.45 19.02-9.6 0-17.38-7.26-17.38-16.21 0-8.96 7.78-16.22 17.38-16.22 9.6 0 16.46 4.46 16.46 13.41ZM89.91 63.96c-6.66 6.66-21.09 5.54-29.84-3.2-9.02-9.03-13.24-20.48-8.2-25.51 9.9-9.9 25.14 4.47 32.41 11.74 7.27 7.27 10.67 11.94 5.63 16.97ZM266.91 249.24c1.26 1.64.62 3.53-.98 4.76-1.59 1.22-4.3.37-5.19-.78-.88-1.16-1.17-3.8.43-5.01 1.59-1.22 4.86-.12 5.74 1.03ZM58.23 308c1.25 1.63.61 3.53-.98 4.75-1.6 1.22-4.3.37-5.2-.78-.88-1.16-1.16-3.8.43-5.01 1.6-1.22 4.86-.12 5.75 1.03ZM185.6 3.43c1.26 1.64.62 3.53-.98 4.75-1.6 1.22-4.3.37-5.19-.78-.88-1.15-1.17-3.79.42-5 1.6-1.23 4.86-.13 5.75 1.03Z"/>
  <path opacity=".55" d="M87.37 42.9c1.25 1.65.61 3.54-.98 4.76-1.6 1.22-4.3.37-5.2-.78-.88-1.15-1.16-3.79.43-5 1.6-1.23 4.86-.13 5.75 1.03ZM277.25 66.4c1.26 1.65.62 3.54-.97 4.76-1.6 1.22-4.31.38-5.2-.78-.88-1.15-1.17-3.79.43-5 1.59-1.23 4.86-.13 5.74 1.03ZM194.53 82.86c1.26 1.64.62 3.53-.98 4.75-1.59 1.22-4.3.38-5.19-.78-.88-1.15-1.17-3.79.42-5 1.6-1.23 4.87-.13 5.75 1.03ZM277.25 323.03c1.26 1.65.62 3.54-.97 4.76-1.6 1.22-4.31.37-5.2-.78-.88-1.16-1.17-3.8.43-5.01 1.59-1.22 4.86-.12 5.74 1.03Z"/>
</svg>
