<svg xmlns="http://www.w3.org/2000/svg" viewBox="0 0 297 645" width="297" preserveAspectRatio="xMidYMid meet">
  <g opacity=".5">
    <path d="M66.8 156.5c7 11.5 40.7 18 61.1 15.5s30.9-22.7 30.9-36.2c0-21.6-16-50.8-50.1-38.8-35 12.3-57 34.6-42 59.5h.1Z" fill="#F9C058"/>
    <path d="M287.4 31.8c15 19.5 7.3 42-11.6 56.6-19 14.5-51.3 4.4-61.9-9.3-10.5-13.7-14-45 5-59.6 19-14.6 58-1.4 68.5 12.3Z" fill="#40009A"/>
    <path d="M251.2 208.1c-17.7 10.4-11 35.7-6.3 46.7 4.6 11 20.2 15 30.5 10.6s14.9-16.8 10.2-27.8c-4.6-11-14.5-41.3-34.4-29.5Z" fill="#7155FF"/>
    <path d="M122.2 275.1c-17.7 10.4-11 35.7-6.3 46.7 4.6 11 20.2 15 30.5 10.6S171 312 168 295s-25.9-31.7-45.8-19.9Z" fill="#00479C"/>
    <path d="M256 338.3c2.6 3.5 1.2 7.5-2.1 10.1-3.4 2.6-9.2.8-11-1.7-2-2.4-2.6-8 .8-10.6 3.4-2.6 10.4-.3 12.2 2.2h.1Z" fill="#005E67"/>
    <path d="M252 633.3c2.6 3.5 1.2 7.5-2.1 10.1-3.4 2.6-9.2.8-11-1.7-2-2.4-2.6-8 .8-10.6 3.4-2.6 10.4-.3 12.2 2.2h.1Z" fill="#40009A"/>
    <path d="M15 28.3c2.6 3.5 1.2 7.5-2.1 10.1-3.4 2.6-9.2.8-11-1.7-2-2.4-2.6-8 .8-10.6 3.4-2.6 10.4-.3 12.2 2.2h.1Z" fill="#00479C"/>
    <path d="M177.6 506c16.4 46.4 52.2 61.8 84.9 50.3 32.6-11.5 40.8-73.1 29.3-105.8-11.5-32.6-41.9-26.3-74.5-14.8-32.7 11.6-51.2 37.6-39.7 70.2v.1Z" fill="#FF5A3D"/>
    <path d="M292.4 9.7c7.2 9.4 3.5 20.2-5.6 27.3-9.2 7-24.7 2-29.8-4.5-5-6.7-6.7-21.8 2.4-28.8s28-.7 33 6Z" fill="#005E67" style="mix-blend-mode:multiply"/>
    <path d="M204.4 527.7c7.2 9.4 3.5 20.2-5.6 27.3-9.2 7-24.7 2-29.8-4.5-5-6.6-6.7-21.8 2.4-28.8s28-.7 33 6Z" fill="#FFD215" style="mix-blend-mode:multiply"/>
  </g>
</svg>
