<svg xmlns="http://www.w3.org/2000/svg" viewBox="0 0 413 576" width="413" preserveAspectRatio="xMidYMid meet">
  <g opacity=".5">
    <path d="M59.4 310.8c17 48.4 54.4 64.5 88.4 52.5 34-12 42.6-76.2 30.6-110.2s-43.7-27.4-77.7-15.4c-34 12-53.3 39-41.3 73Z" fill="#FF5A3D"/>
    <path d="M38.2 433c-17.6 10.3-11 35.6-6.3 46.6s20.2 15 30.5 10.6S87 469.8 84 452.8s-25.8-31.7-45.8-19.9Z" fill="#00479C"/>
    <path d="M244.4 445.7c7.2 9.4 3.5 20.2-5.6 27.3-9.2 7-24.7 2-29.8-4.5-5-6.6-6.7-21.8 2.4-28.8s28-.7 33 6Z" fill="#7155FF"/>
    <path d="M192 444.3c2.6 3.5 1.2 7.5-2.1 10.1-3.4 2.6-9.2.8-11-1.7-2-2.4-2.6-8 .8-10.6 3.4-2.6 10.4-.3 12.2 2.2Z" fill="#F9C058"/>
    <path d="M180.3 575.3c-17.4.4-27-9.4-27.4-21.7-.3-12.2 12.8-34.9 38.7-34.9 20 0 27.8 19.9 24.4 31.6-4 13.5-23.5 24.6-35.7 25Z" fill="#005E67"/>
    <path d="M373.4 519.7c7.2 9.4 3.5 20.2-5.6 27.3-9.2 7-24.7 2-29.8-4.5-5-6.6-6.7-21.8 2.4-28.8s28-.7 33 6Z" fill="#FF5A3D"/>
    <path d="M408 503.3c2.6 3.5 1.2 7.5-2.1 10.1-3.4 2.6-9.2.8-11-1.7-2-2.4-2.6-8 .8-10.6 3.4-2.6 10.4-.3 12.2 2.2Z" fill="#101066"/>
    <path d="M44.8 122.3c16.6-4 38.2 4.4 42.4 22.3 4.2 17.8-5.9 35.5-22.4 39.4-16.6 3.8-33.4-7.5-37.6-25.3-4.2-17.9 1-32.6 17.6-36.4Z" fill="#F9C058"/>
    <path d="M22.2 8.1c-17.7 10.4-11 35.7-6.3 46.7 4.6 11 20.2 15 30.5 10.6s14.9-16.8 10.2-27.8C52 26.6 42.1-3.7 22.2 8Z" fill="#7155FF"/>
    <path d="M65 183.3c2.6 3.5 1.2 7.5-2.1 10.1-3.4 2.6-9.2.8-11-1.7-2-2.4-2.6-8 .8-10.6 3.4-2.6 10.4-.3 12.2 2.2Z" fill="#005E67" style="mix-blend-mode:multiply"/>
  </g>
</svg>
