<svg xmlns="http://www.w3.org/2000/svg" viewBox="0 0 138 133" preserveAspectRatio="xMidYMid meet" opacity=".5">
  <path d="M106.4 47.47c-14.38.4-22.34-7.76-22.62-17.87C83.5 19.5 94.3.7 115.7.7c16.62 0 23.04 16.43 20.19 26.13-3.28 11.2-19.37 20.36-29.49 20.64Z" fill="#005E67"/>
  <path d="M98.31 131.4c-17.4.47-27.03-9.39-27.37-21.62-.34-12.23 12.74-34.95 38.61-34.95 20.11 0 27.87 19.86 24.43 31.6-3.97 13.54-23.44 24.62-35.67 24.96Z" fill="#FF5A3D"/>
  <path d="M17.94 43.42c2.67 3.5 1.3 7.52-2.08 10.12-3.39 2.6-9.16.8-11.05-1.66-1.88-2.46-2.49-8.06.9-10.66 3.39-2.6 10.34-.25 12.23 2.2Z" fill="#7155FF"/>
</svg>
