<svg xmlns="http://www.w3.org/2000/svg" viewBox="0 0 257 464" width="257" preserveAspectRatio="xMidYMid meet">
  <path d="M170.04 273.79c-23.31 66.06-74.26 88.02-120.7 71.64C2.9 329.04-8.8 241.4 7.6 194.96c16.38-46.44 59.6-37.4 106.04-21.02 46.44 16.39 72.8 53.4 56.41 99.85h-.01Zm20.9 178.51c2.67 3.48 1.3 7.5-2.08 10.1-3.39 2.6-9.17.8-11.05-1.65-1.88-2.46-2.49-8.06.9-10.66 3.39-2.6 10.34-.25 12.23 2.2v.01Zm19.24-326.38c-17.6 10.39-10.93 35.69-6.28 46.69 4.66 11 20.2 14.94 30.5 10.58 10.31-4.35 24.63-20.39 21.63-37.39s-25.88-31.65-45.85-19.88ZM161.85 15.27c12.22 15.94 5.99 34.31-9.48 46.17-15.46 11.85-41.82 3.61-50.4-7.59-8.59-11.2-11.37-36.78 4.1-48.64 15.46-11.85 47.2-1.14 55.78 10.06Zm39.97 348.99c16.58-3.89 38.2 4.48 42.38 22.33 4.2 17.85-5.85 35.48-22.43 39.37-16.57 3.88-33.4-7.44-37.6-25.29-4.18-17.85 1.07-32.52 17.65-36.4v-.01Z" fill="#FFF" opacity=".5"/>
</svg>
