<svg xmlns="http://www.w3.org/2000/svg" viewBox="0 0 246 372" width="246" preserveAspectRatio="xMidYMid meet">
  <path d="M75.75 181.79c23.3 66.06 74.26 88.02 120.7 71.64 46.44-16.39 58.13-104.03 41.75-150.47-16.38-46.44-59.6-37.4-106.04-21.02-46.44 16.39-72.8 53.4-56.41 99.85ZM54.85 360.3c-2.68 3.48-1.31 7.5 2.08 10.1 3.39 2.6 9.16.8 11.04-1.65 1.88-2.46 2.5-8.06-.9-10.66-3.38-2.6-10.34-.25-12.22 2.2v.01Zm77-79c-2.67 3.48-1.31 7.5 2.08 10.1 3.39 2.6 9.16.8 11.04-1.65 1.88-2.46 2.5-8.06-.9-10.66-3.38-2.6-10.34-.25-12.22 2.2v.01Zm-34-277c-2.67 3.48-1.31 7.5 2.08 10.1 3.39 2.6 9.16.8 11.04-1.66 1.89-2.45 2.5-8.05-.9-10.65-3.38-2.6-10.34-.25-12.22 2.2v.01ZM43.97 272.26c-16.58-3.89-38.2 4.48-42.39 22.33-4.18 17.85 5.86 35.48 22.43 39.37 16.58 3.88 33.41-7.44 37.6-25.29 4.19-17.85-1.07-32.52-17.64-36.4v-.01Z" fill="#FFF" opacity=".5"/>
</svg>
