<svg xmlns="http://www.w3.org/2000/svg" viewBox="0 0 309 808" preserveAspectRatio="xMidYMid meet" opacity=".5">
  <path d="M104.1 131.03c12.1-2.84 27.63 2.22 30.34 13.77 2.71 11.55-4.9 23.22-16.99 26.06-12.1 2.84-24.1-4.23-26.8-15.79-2.72-11.55 1.36-21.2 13.46-24.04Z" fill="#F9C058"/>
  <path d="M22.18 413.92c-17.6 10.38-10.93 35.69-6.27 46.69 4.65 11 20.18 14.94 30.5 10.58 10.3-4.36 24.62-20.39 21.62-37.39s-25.88-31.65-45.85-19.88Z" fill="#00479C"/>
  <path d="M212.04 613.78c-23.31 66.07-74.26 88.03-120.7 71.65C44.9 669.04 33.2 581.4 49.6 534.96c16.38-46.44 59.6-37.4 106.04-21.01 46.44 16.38 72.8 53.4 56.41 99.83Z" fill="#FF5A3D"/>
  <path d="M232.94 792.3c2.67 3.48 1.3 7.5-2.08 10.1-3.39 2.6-9.17.8-11.05-1.65-1.88-2.46-2.49-8.07.9-10.66 3.39-2.6 10.34-.25 12.23 2.2Z" fill="#005E67"/>
  <path d="M155.94 713.3c2.67 3.48 1.3 7.5-2.08 10.1-3.39 2.6-9.17.8-11.05-1.65-1.88-2.46-2.49-8.07.9-10.66 3.39-2.6 10.34-.25 12.23 2.2Z" fill="#40009A"/>
  <path d="M252.19 465.92c-17.62 10.38-10.94 35.69-6.28 46.69 4.65 11 20.19 14.94 30.5 10.58 10.3-4.36 24.62-20.4 21.62-37.4-3-16.99-25.87-31.64-45.84-19.87Z" fill="#005E67"/>
  <path d="M203.85 355.27c12.22 15.94 5.99 34.31-9.48 46.17-15.46 11.85-41.82 3.61-50.4-7.59-8.59-11.2-11.37-36.78 4.1-48.64 15.46-11.85 47.2-1.14 55.78 10.06Z" fill="#7155FF"/>
  <path d="M189.94 436.3c2.67 3.48 1.3 7.5-2.08 10.1-3.39 2.6-9.17.8-11.05-1.65-1.88-2.46-2.49-8.06.9-10.66 3.39-2.6 10.34-.25 12.23 2.2ZM271.2 198.62c17.6 10.38 10.93 35.68 6.27 46.69-4.65 11-20.19 14.94-30.5 10.58-10.3-4.36-21.9-23.4-17.25-34.4 4.65-11 21.5-34.65 41.47-22.87Z" fill="#00479C"/>
  <path d="M167.94 232.3c2.67 3.48 1.3 7.5-2.08 10.1-3.39 2.6-9.17.8-11.05-1.66-1.88-2.45-2.49-8.06.9-10.65 3.39-2.6 10.34-.25 12.23 2.2Z" fill="#FF5A3D"/>
  <path d="M247.94 7.3c2.67 3.48 1.3 7.5-2.08 10.1-3.39 2.6-9.17.8-11.05-1.66-1.88-2.45-2.49-8.06.9-10.65 3.39-2.6 10.34-.25 12.23 2.2Z" fill="#7155FF"/>
  <path d="M243.82 704.26c16.57-3.89 38.2 4.48 42.38 22.33 4.2 17.85-5.85 35.48-22.43 39.36-16.57 3.9-33.4-7.43-37.6-25.28-4.18-17.85 1.07-32.52 17.65-36.41Z" fill="#F9C058"/>
</svg>
