<svg xmlns="http://www.w3.org/2000/svg" viewBox="0 0 196 398" width="196" preserveAspectRatio="xMidYMid meet">
  <path opacity=".2" d="M42.7 206c-8.3 30.4-5 54.6 17.6 76.5A57 57 0 0 0 141 281c21.8-22.7 24.7-49-1.5-80.6-22.5-27-18.9-55.9-45.5-58.2-26.6-2.4-43.1 34.7-51.2 63.9Z"/>
  <path opacity=".2" d="M166.8 225.5c-14.8-1.2-19.5 7-20.3 17.3-.8 10.4 7 19.5 17.3 20.3 10.4.8 29.3-11 30.1-21.4.8-10.4-16.7-15.4-27-16.2ZM58 76.3c9.2 6.6 17.5 25.2 33.7 19 16.2-6.2 19.2-27.5 15.2-37.9-6.3-16.5-41.7-18.2-53.6-13.6C41.5 48.3 38 61.9 58 76.3ZM58 366.7c9.2 6.6 17.5 25.2 33.7 19 16.2-6.2 19.2-27.5 15.2-37.8-6.3-16.6-41.7-18.3-53.6-13.7-11.8 4.5-15.3 18.1 4.7 32.5ZM118 16.5c0 11 8.5 23.5 20.4 23.5 12 0 21.6-9 21.6-20s-9.7-20-21.6-20C126.5 0 118 5.5 118 16.5Z"/>
</svg>
