<svg xmlns="http://www.w3.org/2000/svg" viewBox="0 0 42 40" width="42" preserveAspectRatio="xMidYMid meet">
  <path fill="#ff5a3d" d="m40.77 26.73-12.6.47a.49.49 0 0 1-.5-.42.48.48 0 0 1 .03-.24l3.36-9.03a.48.48 0 0 1 .78-.19l9.24 8.6a.48.48 0 0 1-.31.8ZM18.39 8a.66.66 0 0 0 0-1.11L7.94.08a.47.47 0 0 0-.73.5l2.52 12.04a.66.66 0 0 0 1.04.42l7.62-5.03Zm15.17-5.53V2.3a.4.4 0 0 0 0-.1v-.04a.56.56 0 0 0-.05-.09.55.55 0 0 0-.09-.09.4.4 0 0 0-.08-.05h-.37l-.13.06L.22 23.55a.45.45 0 0 0-.22.36v.2a.43.43 0 0 0 .38.3l13.52 1.66c.08 0 .16.04.23.1.07.05.12.12.15.2l4.77 12.74.05.1.06.05.05.05h.05l.07.03h.33l.07-.03.07-.07h.03l.07-.14 5.83-15.61 7.83-21Z"/>
</svg>
