<svg xmlns="http://www.w3.org/2000/svg" viewBox="0 0 563 40" preserveAspectRatio="xMidYMid meet">
  <path d="M0 25.98v-2.1l6.16-5.49c.48-.43.81-.83 1-1.21.19-.38.28-.75.28-1.1 0-.72-.23-1.32-.68-1.79a2.27 2.27 0 0 0-1.74-.72 2.5 2.5 0 0 0-2.22 1.27c-.21.37-.31.78-.3 1.22H.02c0-.96.21-1.8.64-2.51a4.37 4.37 0 0 1 1.78-1.66c.76-.4 1.64-.59 2.63-.59.92 0 1.74.2 2.47.62.73.4 1.31.97 1.73 1.7.43.72.64 1.55.64 2.49 0 .69-.1 1.26-.28 1.73a4.2 4.2 0 0 1-.84 1.29c-.37.4-.82.83-1.37 1.31l-3.69 3.27h6.18v2.27H0Zm17.5.32a5.47 5.47 0 0 1-2.7-.65 4.73 4.73 0 0 1-1.84-1.83 5.47 5.47 0 0 1-.65-2.7v-4.64c0-1.02.22-1.92.65-2.7a4.66 4.66 0 0 1 1.83-1.82 5.4 5.4 0 0 1 2.7-.66 5.4 5.4 0 0 1 2.7.66 4.6 4.6 0 0 1 1.82 1.82c.44.78.66 1.68.66 2.7v4.64a5.4 5.4 0 0 1-.66 2.7 4.66 4.66 0 0 1-1.82 1.83c-.78.43-1.68.65-2.7.65Zm0-2.29a2.7 2.7 0 0 0 2.71-2.72V16.3a2.66 2.66 0 0 0-1.34-2.36 2.64 2.64 0 0 0-1.38-.37c-.5 0-.96.12-1.38.37a2.66 2.66 0 0 0-1.34 2.36v4.99a2.7 2.7 0 0 0 2.72 2.72Zm7.58 1.97v-2.1l6.16-5.49c.48-.43.81-.83 1-1.21.18-.38.28-.75.28-1.1 0-.72-.23-1.32-.68-1.79a2.27 2.27 0 0 0-1.74-.72 2.5 2.5 0 0 0-2.22 1.27c-.22.37-.32.78-.3 1.22H25.1c0-.96.21-1.8.64-2.51a4.37 4.37 0 0 1 1.78-1.66c.76-.4 1.63-.59 2.63-.59.92 0 1.74.2 2.47.62.73.4 1.3.97 1.73 1.7.42.72.64 1.55.64 2.49 0 .69-.1 1.26-.28 1.73a4.2 4.2 0 0 1-.84 1.29c-.37.4-.83.83-1.37 1.31l-3.7 3.27H35v2.27h-9.91Zm11.91 0v-2.1l6.16-5.49c.48-.43.82-.83 1-1.21.19-.38.28-.75.28-1.1 0-.72-.22-1.32-.68-1.79a2.27 2.27 0 0 0-1.74-.72 2.5 2.5 0 0 0-2.22 1.27c-.21.37-.31.78-.3 1.22h-2.48c0-.96.22-1.8.64-2.51a4.37 4.37 0 0 1 1.78-1.66c.76-.4 1.64-.59 2.63-.59.92 0 1.75.2 2.47.62.74.4 1.31.97 1.73 1.7.43.72.64 1.55.64 2.49 0 .69-.1 1.26-.28 1.73-.18.46-.46.89-.84 1.29-.36.4-.82.83-1.37 1.31l-3.69 3.27h6.18v2.27H37Zm16.32.02V11.6h2.44l6.68 10.15V11.6h2.44V26h-2.44l-6.68-10.15V26h-2.44Zm17.38.3a4.1 4.1 0 0 1-1.98-.44 3.11 3.11 0 0 1-1.64-2.82c0-.79.2-1.45.59-1.98.39-.54 1.01-.96 1.87-1.25.56-.19 1.25-.34 2.06-.47l2.64-.41c-.05-.62-.25-1.08-.6-1.37-.33-.3-.87-.45-1.61-.45-.5 0-.96.12-1.41.35-.46.23-.77.61-.95 1.16l-2.2-.69c.26-.91.76-1.65 1.52-2.2a5.03 5.03 0 0 1 3.04-.83c.96 0 1.8.16 2.53.47.73.31 1.27.83 1.63 1.54.19.38.3.77.35 1.17.04.4.06.82.06 1.29V26h-2.11v-1.45c-.46.6-1 1.04-1.6 1.33-.6.28-1.33.42-2.2.42Zm.48-1.92c.54 0 1-.1 1.4-.29a2.73 2.73 0 0 0 1.39-1.5c.1-.25.16-.52.19-.83.03-.31.05-.6.05-.85a70 70 0 0 0-2.1.35c-.53.1-.98.2-1.36.33-.42.15-.74.34-.97.57-.23.22-.34.5-.34.85 0 .4.14.72.44.98s.73.39 1.3.39ZM85.52 26c-.71.13-1.41.19-2.1.17a4.81 4.81 0 0 1-1.83-.37 2.54 2.54 0 0 1-1.23-1.13 3.2 3.2 0 0 1-.4-1.42 61 61 0 0 1-.01-1.66v-4.5h-1.96V15.2h1.96v-3h2.4v3h3.17v1.89h-3.17v5.5c.02.33.1.6.22.8.24.4.62.62 1.15.67.53.05 1.13.02 1.8-.08V26Zm2.52-12.44v-2.21h2.41v2.21h-2.4Zm0 12.44V15.2h2.41V26h-2.4Zm10.18.3a5.01 5.01 0 0 1-4.71-2.74 6.4 6.4 0 0 1-.66-2.96c0-1.13.22-2.13.68-2.98a5.01 5.01 0 0 1 4.69-2.72 5 5 0 0 1 4.72 2.75c.44.85.67 1.84.67 2.95 0 1.12-.23 2.11-.68 2.97a5.01 5.01 0 0 1-4.71 2.73Zm0-2.26c.95 0 1.66-.32 2.13-.96.47-.64.7-1.47.7-2.48 0-1.05-.23-1.88-.7-2.5-.48-.63-1.19-.94-2.13-.94-.97 0-1.68.32-2.14.96a4.17 4.17 0 0 0-.68 2.48c0 1.05.23 1.89.7 2.51.49.62 1.19.93 2.12.93Zm7.57 1.96V15.2h2.15v1.2c.4-.47.88-.83 1.47-1.1.6-.27 1.28-.41 2.06-.41.8 0 1.46.13 1.98.4.52.26.93.6 1.24 1.02.3.41.53.85.68 1.32a9.3 9.3 0 0 1 .35 2.34V26h-2.44v-5.2c0-.33-.03-.7-.08-1.12a4.1 4.1 0 0 0-.32-1.2 2.2 2.2 0 0 0-.75-.94 2.73 2.73 0 0 0-2.57-.1c-.38.19-.7.52-.95.99a4.36 4.36 0 0 0-.38 2.02V26h-2.44Zm15.56.3a4.1 4.1 0 0 1-1.98-.44 3.11 3.11 0 0 1-1.64-2.82c0-.79.2-1.45.59-1.98.4-.54 1.02-.96 1.87-1.25.57-.19 1.25-.34 2.06-.47l2.64-.41c-.05-.62-.24-1.08-.59-1.37-.34-.3-.88-.45-1.62-.45-.49 0-.96.12-1.41.35-.45.23-.77.61-.95 1.16l-2.2-.69c.26-.91.77-1.65 1.52-2.2a5.03 5.03 0 0 1 3.04-.83c.96 0 1.8.16 2.53.47.73.31 1.28.83 1.63 1.54.2.38.31.77.35 1.17.04.4.06.82.06 1.29V26h-2.11v-1.45c-.46.6-1 1.04-1.6 1.33-.6.28-1.33.42-2.19.42Zm.48-1.92c.55 0 1.01-.1 1.4-.29a2.74 2.74 0 0 0 1.39-1.5c.1-.25.16-.52.19-.83.03-.31.05-.6.05-.85-.86.13-1.56.25-2.09.35-.53.1-.99.2-1.37.33-.41.15-.74.34-.97.57-.23.22-.34.5-.34.85 0 .4.15.72.44.98.3.26.73.39 1.3.39Zm8.22 1.62V11.3h2.41V26h-2.4Zm14.74.3c-1.05 0-2-.18-2.85-.55a5.15 5.15 0 0 1-3.11-4.01l2.5-.38c.22.85.65 1.51 1.31 1.98a4.33 4.33 0 0 0 3.75.46c.46-.16.82-.4 1.1-.7.29-.31.43-.69.43-1.13 0-.78-.53-1.33-1.6-1.66l-3.72-1.1c-.32-.1-.66-.22-1.04-.37a4.47 4.47 0 0 1-1.05-.65c-.32-.28-.6-.63-.8-1.06a3.7 3.7 0 0 1-.32-1.6 3.79 3.79 0 0 1 2.6-3.74c.8-.32 1.69-.48 2.66-.47 1.48.01 2.72.39 3.71 1.12 1 .73 1.65 1.76 1.97 3.09l-2.59.45a2.75 2.75 0 0 0-1.13-1.76 3.67 3.67 0 0 0-3.33-.43c-.4.15-.73.36-.99.64-.24.28-.37.6-.37.98 0 .35.1.64.32.87.22.22.48.4.8.53a9 9 0 0 0 .96.32l2.58.72c.36.1.75.22 1.2.38.43.16.86.38 1.26.67a3.33 3.33 0 0 1 1.4 2.91c0 1-.26 1.83-.8 2.5a4.83 4.83 0 0 1-2.08 1.49 7.6 7.6 0 0 1-2.77.5Zm11.87.01c-.8 0-1.46-.13-1.98-.39a3.5 3.5 0 0 1-1.24-1.02c-.31-.42-.54-.86-.68-1.33a7.05 7.05 0 0 1-.35-2.34V15.2h2.44v5.2c0 .33.02.71.07 1.13.05.41.16.81.32 1.19.16.38.42.7.76.95s.8.37 1.37.37c.41 0 .8-.1 1.19-.28.38-.19.7-.52.96-.99.25-.47.38-1.15.38-2.02V15.2h2.42V26h-2.13v-1.2c-.4.47-.89.84-1.48 1.11-.59.27-1.27.4-2.05.4Zm8.47-.31V15.2h2.13v1.73c.28-.5.64-.9 1.08-1.16.4-.27.85-.45 1.37-.54.51-.1 1.01-.1 1.5-.03v2.25c-.32-.1-.7-.12-1.11-.08-.42.03-.79.15-1.12.34-.5.27-.87.64-1.1 1.13a3.9 3.9 0 0 0-.33 1.67V26h-2.42Zm10.9 0-3.91-10.8h2.4l2.72 7.83 2.72-7.83h2.41L178.47 26h-2.43Zm12.66.3a5.7 5.7 0 0 1-2.88-.71 5.06 5.06 0 0 1-1.94-1.97 5.94 5.94 0 0 1-.7-2.9c0-1.18.24-2.2.69-3.08a4.9 4.9 0 0 1 1.89-2.02c.8-.48 1.74-.72 2.8-.72a4.6 4.6 0 0 1 4.6 3c.38.95.52 2.08.43 3.37h-7.82c.1.9.38 1.58.85 2.06.47.47 1.12.71 1.94.71 1.2 0 2.05-.51 2.53-1.54l2.38.72a4.81 4.81 0 0 1-1.92 2.28 5.3 5.3 0 0 1-2.85.8Zm-.04-9.29c-1.6 0-2.54.81-2.83 2.44h5.3c-.1-.84-.34-1.46-.75-1.85-.4-.4-.97-.59-1.72-.59Zm8.38 13.79 1.78-4.87-4.37-10.73h2.52l3 7.73 2.94-7.73h2.41l-6.02 15.6h-2.25Zm18.55-4.5a5.01 5.01 0 0 1-4.71-2.74 6.4 6.4 0 0 1-.66-2.96c0-1.13.23-2.13.68-2.98a5.01 5.01 0 0 1 4.69-2.72 5 5 0 0 1 4.72 2.75c.45.85.67 1.84.67 2.95 0 1.12-.23 2.11-.68 2.97a5.01 5.01 0 0 1-4.71 2.73Zm0-2.26c.95 0 1.66-.32 2.13-.96.47-.64.71-1.47.71-2.48 0-1.05-.24-1.88-.71-2.5-.47-.63-1.18-.94-2.13-.94-.97 0-1.68.32-2.14.96a4.17 4.17 0 0 0-.68 2.48c0 1.05.24 1.89.71 2.51.48.62 1.18.93 2.11.93Zm7.57 1.96V15.2h2.15v1.2c.4-.47.89-.83 1.47-1.1.6-.27 1.28-.41 2.06-.41.8 0 1.46.13 1.98.4.52.26.94.6 1.24 1.02.31.41.54.85.68 1.32a9.3 9.3 0 0 1 .35 2.34V26h-2.44v-5.2c0-.33-.02-.7-.08-1.12a4.07 4.07 0 0 0-.32-1.2 2.2 2.2 0 0 0-.75-.94 2.73 2.73 0 0 0-2.57-.1c-.38.19-.7.52-.95.99a4.36 4.36 0 0 0-.38 2.02V26h-2.44Zm16.75 0V11.6h2.4v12.14h6.37V26h-8.77Zm16.01.3a6.39 6.39 0 0 1-5.84-3.42 8.54 8.54 0 0 1-.9-4.08c0-1.57.3-2.92.88-4.03a6.34 6.34 0 0 1 5.86-3.47c1.77 0 3.18.41 4.21 1.24a6.14 6.14 0 0 1 2.11 3.46l-2.46.39a4.22 4.22 0 0 0-1.34-2.04 3.67 3.67 0 0 0-2.37-.77 4.1 4.1 0 0 0-2.41.63 4 4 0 0 0-1.45 1.83 7.3 7.3 0 0 0-.48 2.76c0 1.57.36 2.83 1.08 3.78.73.95 1.81 1.43 3.26 1.45a3.73 3.73 0 0 0 2.65-.9 4.55 4.55 0 0 0 1.3-2.79h-2.54v-1.89h5.1a5.02 5.02 0 0 1 .04.84c0 1.36-.27 2.57-.81 3.63a5.98 5.98 0 0 1-2.3 2.48c-1 .6-2.2.9-3.59.9Zm8.7-.3V11.6h5.72c.97 0 1.77.2 2.4.59.63.39 1.09.88 1.39 1.49a4.2 4.2 0 0 1 .07 3.6c-.25.49-.6.86-1.06 1.13.7.3 1.22.74 1.57 1.33.36.6.54 1.25.54 1.98 0 1.28-.37 2.31-1.1 3.1-.74.79-1.81 1.18-3.23 1.18h-6.3Zm2.45-8.65h3.24c.51 0 .94-.15 1.29-.44.35-.3.53-.74.53-1.31 0-.5-.17-.92-.5-1.25-.31-.33-.75-.5-1.32-.5h-3.24v3.5Zm0 6.38h3.55c.63 0 1.15-.19 1.57-.56.42-.37.63-.88.63-1.52 0-.58-.19-1.07-.56-1.46-.38-.4-.9-.59-1.57-.59h-3.62v4.13ZM280.3 26V13.86h-4.67V11.6h11.74v2.26h-4.67V26h-2.4Zm14.75.3a6.29 6.29 0 0 1-6.07-3.58 8.89 8.89 0 0 1-.82-3.92c0-1.49.28-2.8.82-3.92.56-1.13 1.35-2 2.37-2.63a6.95 6.95 0 0 1 3.7-.95c1.44 0 2.68.32 3.7.95a6.12 6.12 0 0 1 2.37 2.63c.56 1.13.83 2.43.83 3.92 0 1.93-.45 3.55-1.37 4.84l1.14 1.15-1.49 1.51-1.15-1.16c-.54.37-1.14.66-1.82.86-.67.2-1.4.3-2.2.3Zm0-2.27c.9 0 1.68-.19 2.32-.58l-1.25-1.24 1.51-1.51 1.16 1.15c.41-.83.61-1.85.61-3.05 0-1.57-.36-2.83-1.09-3.78-.72-.95-1.8-1.43-3.26-1.45-.96 0-1.77.2-2.4.64a4 4 0 0 0-1.46 1.83 7.3 7.3 0 0 0-.48 2.76c0 1.57.36 2.83 1.08 3.78.73.95 1.82 1.43 3.26 1.45Zm16.4 1.97v-5.9l-4.9-8.5h2.8l3.32 5.74 3.3-5.74h2.8l-4.88 8.5V26h-2.44Zm11.9.3a5 5 0 0 1-4.71-2.74 6.4 6.4 0 0 1-.67-2.96c0-1.13.23-2.13.68-2.98a5.01 5.01 0 0 1 4.7-2.72 5 5 0 0 1 4.72 2.75c.44.85.66 1.84.66 2.95 0 1.12-.22 2.11-.68 2.97a5.02 5.02 0 0 1-4.7 2.73Zm0-2.26c.95 0 1.66-.32 2.12-.96.48-.64.71-1.47.71-2.48 0-1.05-.23-1.88-.7-2.5-.48-.63-1.19-.94-2.14-.94-.96 0-1.68.32-2.14.96a4.16 4.16 0 0 0-.68 2.48c0 1.05.24 1.89.71 2.51.48.62 1.19.93 2.11.93ZM335 26.31c-.8 0-1.46-.13-1.98-.39a3.5 3.5 0 0 1-1.24-1.02c-.31-.42-.54-.86-.68-1.33a7.05 7.05 0 0 1-.35-2.34V15.2h2.44v5.2c0 .33.02.71.07 1.13.05.41.16.81.32 1.19.16.38.42.7.76.95s.8.37 1.37.37c.41 0 .8-.1 1.19-.28.38-.19.7-.52.96-.99.25-.47.38-1.15.38-2.02V15.2h2.42V26h-2.13v-1.2c-.4.47-.89.84-1.48 1.11-.59.27-1.27.4-2.05.4Zm14.8-.31c-.72.13-1.42.19-2.1.17a4.81 4.81 0 0 1-1.83-.37 2.54 2.54 0 0 1-1.23-1.13 3.22 3.22 0 0 1-.4-1.42l-.01-1.66v-4.5h-1.96V15.2h1.96v-3h2.4v3h3.17v1.89h-3.17v5.5c.02.33.09.6.22.8.24.4.62.62 1.15.67.52.05 1.12.02 1.8-.08V26Zm2.3 0V11.6h2.15v4.8c.4-.47.88-.83 1.47-1.1.6-.27 1.28-.41 2.06-.41.8 0 1.46.13 1.98.4.52.26.93.6 1.24 1.02.3.41.53.85.68 1.32a9.56 9.56 0 0 1 .35 2.34V26h-2.44v-5.2c0-.33-.03-.7-.08-1.12a4.13 4.13 0 0 0-.32-1.2 2.2 2.2 0 0 0-.75-.94c-.34-.25-.8-.38-1.37-.38-.42 0-.81.1-1.2.28-.38.19-.7.52-.95.99a4.35 4.35 0 0 0-.38 2.02V26h-2.44Zm16.54 0V11.6h2.17l4.98 10.2 4.98-10.2h2.17V26h-2.25v-9.23L376.27 26h-.96l-4.4-9.23V26h-2.27Zm22.02.3a5.7 5.7 0 0 1-2.88-.71 5.05 5.05 0 0 1-1.94-1.97 5.94 5.94 0 0 1-.69-2.9c0-1.18.23-2.2.68-3.08a4.9 4.9 0 0 1 1.9-2.02c.8-.48 1.73-.72 2.8-.72a4.61 4.61 0 0 1 4.6 3c.37.95.51 2.08.42 3.37h-7.82c.1.9.38 1.58.85 2.06.48.47 1.12.71 1.94.71 1.2 0 2.05-.51 2.53-1.54l2.38.72a4.82 4.82 0 0 1-1.92 2.28 5.3 5.3 0 0 1-2.85.8Zm-.04-9.29c-1.6 0-2.54.81-2.83 2.44h5.31c-.1-.84-.35-1.46-.76-1.85-.4-.4-.97-.59-1.72-.59Zm6.85 8.99V15.2h2.15v1.2c.4-.47.88-.83 1.47-1.1.6-.27 1.28-.41 2.06-.41.8 0 1.46.13 1.98.4.52.26.93.6 1.24 1.02.3.41.53.85.68 1.32a9.3 9.3 0 0 1 .35 2.34V26h-2.44v-5.2c0-.33-.03-.7-.08-1.12a4.1 4.1 0 0 0-.32-1.2 2.2 2.2 0 0 0-.75-.94 2.73 2.73 0 0 0-2.57-.1c-.38.19-.7.52-.95.99a4.36 4.36 0 0 0-.38 2.02V26h-2.44Zm18.87 0c-.71.13-1.41.19-2.1.17a4.81 4.81 0 0 1-1.83-.37 2.54 2.54 0 0 1-1.23-1.13 3.22 3.22 0 0 1-.4-1.42l-.01-1.66v-4.5h-1.96V15.2h1.96v-3h2.4v3h3.17v1.89h-3.17v5.5c.02.33.1.6.22.8.24.4.62.62 1.15.67.53.05 1.13.02 1.8-.08V26Zm5.34.3a4.1 4.1 0 0 1-1.98-.44 3.11 3.11 0 0 1-1.64-2.82c0-.79.2-1.45.6-1.98.38-.54 1-.96 1.86-1.25.57-.19 1.25-.34 2.06-.47l2.64-.41c-.05-.62-.24-1.08-.59-1.37-.34-.3-.88-.45-1.62-.45-.49 0-.95.12-1.4.35-.46.23-.78.61-.96 1.16l-2.2-.69c.26-.91.77-1.65 1.52-2.2a5.03 5.03 0 0 1 3.04-.83c.96 0 1.8.16 2.53.47.73.31 1.28.83 1.63 1.54.2.38.31.77.35 1.17.04.4.06.82.06 1.29V26h-2.1v-1.45c-.47.6-1 1.04-1.6 1.33-.6.28-1.34.42-2.2.42Zm.48-1.92c.55 0 1.01-.1 1.4-.29a2.74 2.74 0 0 0 1.4-1.5c.1-.25.16-.52.18-.83.04-.31.05-.6.05-.85-.86.13-1.56.25-2.09.35-.53.1-.99.2-1.37.33-.41.15-.74.34-.97.57-.22.22-.34.5-.34.85 0 .4.15.72.44.98.3.26.74.39 1.3.39Zm8.22 1.62V11.3h2.42V26h-2.42Zm9.42 0V11.6h2.4v6.06h6.82V11.6h2.4V26h-2.4v-6.08h-6.81V26h-2.41Zm19.34.3a5.7 5.7 0 0 1-2.88-.71 5.06 5.06 0 0 1-1.94-1.97 5.94 5.94 0 0 1-.7-2.9c0-1.18.24-2.2.69-3.08a4.9 4.9 0 0 1 1.89-2.02c.8-.48 1.74-.72 2.8-.72a4.6 4.6 0 0 1 4.6 3c.38.95.52 2.08.43 3.37h-7.82c.1.9.38 1.58.85 2.06.47.47 1.12.71 1.94.71 1.2 0 2.05-.51 2.53-1.54l2.38.72a4.81 4.81 0 0 1-1.92 2.28 5.3 5.3 0 0 1-2.85.8Zm-.04-9.29c-1.6 0-2.55.81-2.83 2.44h5.3c-.1-.84-.34-1.46-.75-1.85-.4-.4-.97-.59-1.72-.59Zm9.98 9.29a4.1 4.1 0 0 1-1.98-.44 3.11 3.11 0 0 1-1.64-2.82c0-.79.2-1.45.6-1.98.39-.54 1.01-.96 1.86-1.25.57-.19 1.26-.34 2.06-.47l2.64-.41c-.04-.62-.24-1.08-.59-1.37-.34-.3-.88-.45-1.62-.45-.48 0-.95.12-1.4.35-.46.23-.78.61-.96 1.16l-2.2-.69c.26-.91.77-1.65 1.52-2.2a5.03 5.03 0 0 1 3.04-.83c.96 0 1.8.16 2.53.47.74.31 1.28.83 1.63 1.54.2.38.31.77.35 1.17.04.4.06.82.06 1.29V26h-2.1v-1.45c-.47.6-1 1.04-1.6 1.33-.6.28-1.34.42-2.2.42Zm.48-1.92c.55 0 1.02-.1 1.4-.29a2.73 2.73 0 0 0 1.4-1.5c.1-.25.16-.52.18-.83.04-.31.05-.6.05-.85-.86.13-1.55.25-2.09.35-.53.1-.99.2-1.37.33-.4.15-.73.34-.97.57-.22.22-.34.5-.34.85 0 .4.15.72.44.98.3.26.74.39 1.3.39ZM477.8 26V11.3h2.4V26h-2.4Zm11.73 0c-.71.13-1.41.19-2.1.17a4.81 4.81 0 0 1-1.83-.37 2.54 2.54 0 0 1-1.23-1.13 3.2 3.2 0 0 1-.39-1.42l-.02-1.66v-4.5H482V15.2h1.96v-3h2.4v3h3.17v1.89h-3.17v4.36l.01 1.14c.02.33.09.6.21.8.24.4.63.62 1.15.67.53.05 1.13.02 1.8-.08V26Zm2.3 0V11.6h2.16v4.8c.39-.47.88-.83 1.46-1.1.6-.27 1.29-.41 2.06-.41.8 0 1.46.13 1.99.4.51.26.93.6 1.24 1.02.3.41.53.85.67 1.32a9.3 9.3 0 0 1 .35 2.34V26h-2.44v-5.2c0-.33-.02-.7-.07-1.12a4.07 4.07 0 0 0-.32-1.2 2.2 2.2 0 0 0-.75-.94c-.35-.25-.8-.38-1.38-.38-.4 0-.8.1-1.2.28-.38.19-.7.52-.94.99a4.36 4.36 0 0 0-.38 2.02V26h-2.44Z"/>
  <path fill="#ff5a3d" d="m561.77 26.73-12.6.47a.49.49 0 0 1-.42-.2.48.48 0 0 1-.05-.46l3.36-9.03a.49.49 0 0 1 .78-.19l9.24 8.6a.48.48 0 0 1 .1.5.48.48 0 0 1-.41.3ZM539.39 8a.66.66 0 0 0 0-1.11L528.94.08a.47.47 0 0 0-.73.5l2.52 12.04a.66.66 0 0 0 1.04.42l7.62-5.03Zm15.17-5.53v-.32a.54.54 0 0 0-.05-.09.42.42 0 0 0-.17-.15h-.37l-.13.07-32.62 21.56a.45.45 0 0 0-.22.36v.2a.43.43 0 0 0 .24.26c.04.02.09.04.14.04l13.52 1.66c.08 0 .16.04.23.1.07.05.12.12.15.2l4.77 12.74.05.1.06.05.05.05h.05l.07.03h.33l.07-.03.07-.07h.03l.07-.14 5.83-15.61 7.83-21Z"/>
</svg>
