<?xml version="1.0" encoding="utf-8"?><!DOCTYPE svg PUBLIC "-//W3C//DTD SVG 1.1//EN" "http://www.w3.org/Graphics/SVG/1.1/DTD/svg11.dtd"><svg version="1.1" id="Contours" xmlns="http://www.w3.org/2000/svg" xmlns:xlink="http://www.w3.org/1999/xlink" x="0px" y="0px" width="496.593414px" height="496.593414px" viewBox="0.000001 -0.000000 496.593414 227.404007" enable-background="new 0 0 496.593414 496.593414" stroke-linecap='round' stroke-linejoin='round'><path class="selected"  fill="white" opacity="1.000000"
 	d="
M43.177347 64.492937 C52.506586 49.461169 62.769853 35.775244 78.846376 27.870516 C93.697671 20.568228 105.608209 27.416132 109.847497 42.827509 C110.730615 46.038027 111.071725 49.580103 110.720254 52.868670 C110.551507 54.447832 108.186029 55.792223 106.815378 57.242937 C105.870630 55.391672 103.832376 53.314471 104.160531 51.726198 C106.130701 42.190871 103.058877 34.163374 94.235925 31.444731 C90.048044 30.154307 84.290056 30.840613 80.262506 32.764704 C70.306360 37.521082 62.368135 45.268305 56.010408 54.205233 C43.897134 71.232661 34.583131 89.807810 28.883081 109.926470 C23.752710 128.034395 19.654195 146.432360 14.877126 164.643786 C12.719011 172.871081 9.953855 180.937487 7.601217 189.116335 C6.822603 191.823153 6.356203 194.638354 5.995912 197.436037 C5.882322 198.318056 6.578664 199.304354 6.904325 200.242937 C7.426759 199.561510 8.080953 198.944857 8.452424 198.189211 C18.788206 177.164187 28.892225 156.087527 37.135843 134.067293 C45.874307 110.725237 56.227617 87.986063 65.971628 65.024309 C67.115671 62.328379 68.629571 59.704806 70.425874 57.401667 C71.520395 55.998316 74.130540 54.065783 74.924531 54.490999 C76.645608 55.412691 78.699357 57.663256 78.754152 59.428248 C79.097047 70.474222 79.447122 81.567705 78.777505 92.583620 C78.139886 103.073069 76.577760 113.539828 74.849603 123.921267 C72.525888 137.880312 69.486589 151.719225 67.079599 165.665819 C65.696802 173.677996 64.936609 181.798632 63.937349 189.875536 C63.542993 193.063082 63.079118 196.261034 63.018213 199.461306 C62.994417 200.711855 63.990747 201.981814 64.522439 203.242937 C65.324068 202.418398 66.489892 201.734209 66.870218 200.747317 C70.167039 192.192431 76.640809 186.452059 85.256227 185.582949 C93.484415 184.752886 100.806085 181.760546 108.146722 179.006685 C117.345117 175.555865 125.747858 170.040301 134.786645 166.084582 C139.426599 164.053972 144.640558 163.006106 149.703821 162.338061 C161.302362 160.807787 173.108468 160.517565 184.179208 156.179354 C185.891076 155.508562 188.163644 154.272112 188.624231 152.808596 C189.673273 149.475237 192.235025 149.776064 194.055215 150.451098 C195.381631 150.943011 197.027856 153.640108 196.695032 154.848147 C196.140817 156.859850 194.427545 159.550616 192.655984 160.061739 C183.234125 162.780215 173.682550 165.099138 164.086664 167.136111 C160.897226 167.813143 157.436792 167.112307 154.111139 167.270281 C147.311304 167.593325 140.927072 169.255205 134.549493 171.924532 C120.612848 177.757708 108.195962 186.974734 93.222024 190.435763 C89.864358 191.211840 86.417863 191.655153 83.116090 192.610522 C76.726365 194.459322 73.703599 200.066744 69.880937 204.813402 C68.023157 207.120196 66.002923 209.684237 63.466791 210.960482 C60.137727 212.635714 58.076242 209.743426 58.058938 206.948900 C58.011308 199.256380 58.207147 191.518084 59.034822 183.876757 C59.883279 176.043612 61.586488 168.302553 62.929704 160.523638 C64.030374 154.149340 65.195070 147.785799 66.252778 141.404482 C67.521211 133.751864 68.721284 126.087801 69.923356 118.424364 C71.274080 109.813174 72.619249 101.200907 73.900339 92.579226 C74.094171 91.274760 73.877290 89.914507 73.935678 88.583803 C74.251413 81.388140 74.673349 74.195734 74.862092 66.997050 C74.901018 65.512522 74.105256 64.006121 73.694208 62.509798 C72.751451 63.607973 71.522829 64.567995 70.914079 65.827593 C67.829980 72.209170 64.678422 78.574190 61.974389 85.120104 C56.154535 99.208788 50.521532 113.376131 44.950303 127.565569 C40.503198 138.891970 36.471483 150.385256 31.850858 161.638384 C28.927156 168.758776 25.393922 175.642168 21.891309 182.507998 C18.094678 189.950167 14.078432 197.283190 10.016244 204.584978 C9.017541 206.380144 7.709894 208.199221 6.089227 209.385790 C4.952897 210.217776 2.868909 210.509478 1.543308 210.058092 C0.690336 209.767641 -0.161254 207.594805 0.026176 206.433443 C1.203624 199.137606 2.416280 191.828890 4.097803 184.636751 C7.892538 168.406069 11.828386 152.205279 15.963201 136.057986 C20.874059 116.880099 26.052923 97.766299 34.945028 79.930903 C37.496309 74.813662 40.260683 69.802653 43.177347 64.492937 z"/><path class="selected"  fill="white" opacity="1.000000" stroke="none"
 	d="
M337.677316 121.992937 C330.594003 133.573092 324.016794 145.069247 316.824838 156.167010 C312.925973 162.183291 307.754709 167.362093 303.609811 173.237795 C301.798318 175.805819 300.343149 179.109179 300.088785 182.191042 C299.556253 188.644320 300.317117 195.202502 299.814737 201.660647 C299.338388 207.784380 298.331613 213.942721 296.757699 219.873415 C295.964242 222.863131 295.310678 226.755266 290.630533 227.325365 C285.494089 227.951052 282.458566 224.746737 281.110696 221.150851 C276.942148 210.029909 272.736703 198.793200 270.152749 187.241945 C267.181741 173.960360 265.140603 160.353289 264.131113 146.780825 C262.931802 130.656939 263.260568 114.419390 262.928201 98.231074 C262.921365 97.898020 262.894266 97.560831 262.932718 97.232142 C263.193246 95.005533 263.468912 92.780703 263.739694 90.555292 C262.817453 90.935961 261.457925 91.055956 261.048746 91.742441 C259.281961 94.706431 253.510690 95.461886 255.947244 100.765612 C256.259775 101.445948 256.546823 102.138010 256.845651 102.824648 C254.375955 103.297411 251.910959 104.087435 249.434762 104.124338 C247.941324 104.146586 245.149820 102.969095 245.163156 102.381129 C245.206308 100.480692 245.755929 98.062639 247.048166 96.816416 C251.349954 92.667788 255.865945 88.680460 260.664834 85.123804 C266.371225 80.894564 266.822122 74.589457 267.867288 68.582796 C270.569620 53.052149 277.379068 39.190367 285.072092 25.729273 C288.341775 20.008047 291.858041 14.152495 296.427774 9.503708 C307.852212 -2.118406 318.867441 -4.705697 330.875833 11.001126 C341.064218 24.327368 347.009042 39.757372 349.709573 56.105059 C351.585702 67.462305 352.199960 79.152117 348.216623 90.513872 C344.591134 100.854937 341.342233 111.328036 337.677316 121.992937 M337.927347 36.742937 C337.809457 35.958369 337.879312 35.080897 337.544290 34.403757 C334.533090 28.317480 331.845437 22.023489 328.298776 16.260706 C322.688394 7.144821 313.837137 3.916281 306.923685 8.345440 C303.004373 10.856381 298.951211 13.841555 296.328897 17.575632 C284.935251 33.799978 276.670846 51.588274 272.055520 70.926005 C271.603555 72.819582 272.224710 75.978327 273.565744 77.123041 C280.936014 83.414515 283.982858 92.144022 286.789346 100.708643 C293.692911 121.776522 298.831735 143.269747 298.956644 165.656161 C298.961435 166.519640 299.397165 167.380739 299.632059 168.242922 C300.416421 167.723635 301.397378 167.360598 301.954019 166.660296 C306.324258 161.162401 310.734292 155.689211 314.902475 150.039004 C323.891855 137.853258 330.195566 124.193987 336.250192 110.414767 C341.833047 97.709124 345.071359 84.515909 344.967752 70.531466 C344.882242 58.991640 342.288614 48.008326 337.927347 36.742937 M291.427377 143.242937 C290.594034 138.588808 289.933938 133.895617 288.895181 129.287813 C285.656228 114.920473 281.919198 100.692927 274.847024 87.631228 C274.069009 86.194216 272.181589 85.357874 270.808725 84.242937 C270.181589 85.575091 269.328500 86.851031 268.979928 88.252466 C268.446390 90.397524 267.989816 92.626978 267.972452 94.824328 C267.877725 106.821512 267.819070 118.821215 267.972055 130.817202 C268.051065 137.014605 268.258401 143.247179 269.010080 149.390169 C270.007821 157.544100 271.542093 165.635027 272.940622 173.736666 C274.663370 183.716723 275.147561 194.005160 280.876535 202.952181 C283.456582 206.981463 285.445596 211.385958 287.798562 215.566271 C288.362863 216.568896 289.309213 217.356463 290.079873 218.242937 C291.029031 217.037554 292.647897 215.918230 292.815683 214.612444 C293.718515 207.586855 294.404092 200.523913 294.847146 193.453982 C294.995889 191.080416 294.210367 188.648287 293.851907 186.242937 C291.965616 187.654391 290.066842 189.049700 288.200967 190.487627 C287.677377 190.891131 287.237222 191.407625 286.781320 191.893435 C285.046792 193.741854 282.816751 195.956652 280.846658 193.233599 C280.063425 192.151018 281.524240 188.599566 282.908151 186.978762 C285.421792 184.034823 289.019266 181.999026 291.442178 179.000597 C293.205575 176.818377 294.877084 173.639361 294.733438 171.005968 C294.236429 161.894381 292.927347 152.827090 291.427377 143.242937 z"/><path class="selected"  fill="white" opacity="1.000000" stroke="none"
 	d="
M466.927347 212.242953 C474.902017 213.909609 482.407052 215.454958 489.833597 217.313921 C492.181741 217.901690 494.345498 219.280337 496.513040 220.446902 C496.718423 220.557406 496.497781 222.266237 496.216104 222.348681 C493.674417 223.092486 490.863016 224.595278 488.529031 224.077990 C478.217996 221.792803 468.062112 218.818972 457.807840 216.263842 C441.785440 212.271410 425.811654 208.005678 409.638009 204.744524 C404.578317 203.724322 398.777780 204.925997 393.602518 206.238695 C383.416086 208.822497 373.543100 212.678454 363.321786 215.075899 C356.333932 216.714937 348.953622 214.775759 343.168832 211.017351 C335.441385 205.996813 330.579477 209.545290 325.279428 214.336718 C323.647317 215.812197 321.850381 217.248385 319.880624 218.174578 C316.759866 219.641985 313.539865 219.950548 310.576639 217.421511 C307.201150 214.540591 307.074228 210.409334 308.081399 207.057268 C313.395212 189.371248 322.187936 173.843569 337.726419 162.956896 C341.011239 160.655489 344.921426 160.027926 347.952920 162.425982 C349.990060 164.037401 350.857858 167.316134 351.801279 170.005877 C352.084573 170.813601 351.076089 172.805285 350.273294 173.066057 C349.397714 173.350497 347.521249 172.565706 347.039133 171.708300 C344.699777 167.547869 341.288064 168.487993 338.528238 170.284624 C326.079812 178.388476 319.200693 190.500948 314.919382 204.348498 C314.647104 205.229113 313.919870 206.107043 313.998575 206.929323 C314.160409 208.619784 314.725015 210.271670 315.123849 211.939409 C316.712839 211.552767 318.582101 211.570772 319.836954 210.701662 C323.252572 208.336031 326.426034 205.617068 329.661783 202.996523 C332.467050 200.724642 335.419137 200.749682 338.492288 202.313372 C341.934213 204.064684 345.501169 205.621233 348.764139 207.661638 C354.128061 211.015810 359.347909 209.645800 364.752603 207.958773 C372.289163 205.606295 379.895914 203.479174 387.467966 201.239870 C391.919656 199.923342 396.285745 197.962237 400.828073 197.396029 C406.704568 196.663546 412.131357 198.897112 417.747995 200.973620 C425.209360 203.732149 433.381479 204.562502 441.242471 206.248080 C445.975961 207.263079 450.036966 210.211458 455.691385 208.628344 C458.697092 207.786806 462.812723 210.909609 466.927347 212.242953 z"/></svg>