<svg id="Layer_1" data-name="Layer 1" xmlns="http://www.w3.org/2000/svg" width="30" height="30"  viewBox="0 0 30 30"><defs><style>.cls-1{fill:#fff;}</style></defs><title>Share</title><path class="cls-1" d="M15,0C6.7,0,0,6.7,0,15c0,8.3,6.7,15,15,15c8.3,0,15-6.7,15-15C30,6.7,23.3,0,15,0z M11.5,15
	c0,0.2,0,0.5-0.1,0.7l6.1,3.4c1.2-1.1,3-1.2,4.3-0.3c1.5,1.1,1.8,3.2,0.7,4.7c-1.1,1.5-3.2,1.8-4.7,0.7c-0.9-0.6-1.4-1.7-1.4-2.7
	c0-0.2,0-0.5,0.1-0.7l-6.1-3.4c-1.2,1.1-3,1.2-4.3,0.2c-1.5-1.1-1.8-3.2-0.7-4.7c1.1-1.5,3.2-1.8,4.7-0.7c0.1,0.1,0.2,0.2,0.3,0.3
	l6.1-3.4c-0.1-0.2-0.1-0.5-0.1-0.7C16.4,6.5,18,5,19.8,5c1.9,0,3.4,1.5,3.4,3.4c0,1.9-1.5,3.4-3.4,3.4c-0.9,0-1.7-0.3-2.3-0.9
	l-6.1,3.5C11.5,14.5,11.5,14.8,11.5,15z"/>
</svg>
</svg>