<svg id="Layer_1" data-name="Layer 1" xmlns="http://www.w3.org/2000/svg" width="30" height="30"  viewBox="0 0 30 30"><defs><style>.cls-1{fill:#fff;}</style></defs><title>Twitter</title><path class="cls-1" d="M15,0C6.7,0,0,6.7,0,15s6.7,15,15,15s15-6.7,15-15S23.3,0,15,0z M23,11.5c0,0.2,0,0.3,0,0.5
	c0,5.6-4.4,10.2-10,10.2c-0.1,0-0.1,0-0.2,0c-2,0-3.9-0.6-5.5-1.6c0.3,0,0.6,0.1,0.9,0.1c1.6,0,3.2-0.5,4.5-1.5
	c-1.5,0-2.9-1-3.3-2.5c0.2,0,0.4,0.1,0.7,0.1c0.3,0,0.6,0,0.9-0.1c-1.7-0.3-2.9-1.8-2.9-3.5c0.5,0.3,1.1,0.4,1.6,0.4
	c-1.6-1-2.1-3.1-1.1-4.8c1.8,2.2,4.5,3.6,7.4,3.7c-0.1-0.3-0.1-0.5-0.1-0.8c0-2,1.5-3.6,3.5-3.7c1,0,2,0.4,2.7,1.2
	c0.8-0.2,1.6-0.4,2.3-0.9c-0.3,0.8-0.8,1.5-1.6,2c0.7-0.1,1.4-0.3,2-0.6C24.3,10.4,23.7,11,23,11.5z"/></svg>