<svg id="Layer_1" data-name="Layer 1" xmlns="http://www.w3.org/2000/svg" viewBox="0 0 30 30" height="30px" width="30px" ><circle cx="15" cy="15" r="15"/><path d="M6.34,25v-2l5-10.59a9.41,9.41,0,0,0,.92-4c0-1.37-.77-2.06-1.75-2.06S8.72,7.12,8.72,8.5v1H6.4V8.55A4.11,4.11,0,0,1,7.54,5.42a4.36,4.36,0,0,1,3-1.09,4.08,4.08,0,0,1,2.87,1,4.19,4.19,0,0,1,1.21,3.21,11.79,11.79,0,0,1-1.18,4.63l-4.56,9.7h5.74V25Z"/><path d="M22.36,14.7V8.1c0-.84-.28-1.86-1.38-1.89A1.69,1.69,0,0,0,19.19,8.1v6.6h-2.1V4.56h2v.86a5.63,5.63,0,0,1,.81-.65,3.12,3.12,0,0,1,1.62-.44,3.29,3.29,0,0,1,2.15.85,2.84,2.84,0,0,1,.76,2.28V14.7Z"/></svg>